<?xml version="1.0" encoding="utf-8"?>
<!-- Generator: Adobe Illustrator 23.0.4, SVG Export Plug-In . SVG Version: 6.00 Build 0)  -->
<svg version="1.1" xmlns="http://www.w3.org/2000/svg" xmlns:xlink="http://www.w3.org/1999/xlink" x="0px" y="0px"
	 viewBox="0 0 1782.47 650.12" style="enable-background:new 0 0 1782.47 650.12;" xml:space="preserve">
<style type="text/css">
	
		.st0{fill-rule:evenodd;clip-rule:evenodd;fill:#5E4F4A;stroke:#2D2512;stroke-width:27;stroke-linejoin:bevel;stroke-miterlimit:10;}
	
		.st1{fill-rule:evenodd;clip-rule:evenodd;fill:#2D2512;stroke:#2D2512;stroke-width:27;stroke-linejoin:bevel;stroke-miterlimit:10;}
	
		.st2{fill-rule:evenodd;clip-rule:evenodd;fill:#9C8B6F;stroke:#2D2512;stroke-width:27;stroke-linejoin:bevel;stroke-miterlimit:10;}
	
		.st3{fill-rule:evenodd;clip-rule:evenodd;fill:#915F1B;stroke:#2D2512;stroke-width:27;stroke-linejoin:bevel;stroke-miterlimit:10;}
	
		.st4{fill-rule:evenodd;clip-rule:evenodd;fill:#3C2F41;stroke:#2D2512;stroke-width:27;stroke-linejoin:bevel;stroke-miterlimit:10;}
	.st5{fill-rule:evenodd;clip-rule:evenodd;fill:#FFFFFF;}
	.st6{fill-rule:evenodd;clip-rule:evenodd;fill:#E25524;}
	.st7{fill-rule:evenodd;clip-rule:evenodd;fill:#9C8B6F;}
	.st8{fill-rule:evenodd;clip-rule:evenodd;fill:#915F1B;}
	.st9{fill-rule:evenodd;clip-rule:evenodd;fill:#3C2F41;}
	.st10{fill:#3C2F41;}
	.st11{fill:#B9B1A7;}
</style>
<g id="Layer_2">
</g>
<g id="Layer_1_copy">
	<g>
		<path class="st0" d="M307.39,454.19c-24.95,78-62.27,114.84-111.38,133.5c-11.2,7.48-18.48,28.8-18.36,56.56
			c9.17-18.99,12.24-32.57,29.53-37.66c40.21-11.83,40.54,15.9,73.89,29.21c28.71-28.32,49.19-82.32,58.42-157.23
			C328.59,460.2,317.94,454.61,307.39,454.19L307.39,454.19z"/>
		<path class="st1" d="M134.64,546.65c-4.96,16.71,1.34,41.14,26.99,78.84c-39.46-47.96-50.72,13.98-62.33,9.81
			C103.28,577.05,118.3,545.63,134.64,546.65L134.64,546.65z"/>
		<path class="st0" d="M228.13,213.95c12.08,13.4,8.4,21.23,18.28,63.88c2.35,10.14,4.52,19.41,8.12,14.95
			c26.98-33.26,59.98-39.18,66.58,2.11c12.37,15.39,17.43,34.3,19.36,51.56c1,9.01,1.15,17.56,1.05,24.94l-22.27-42.28
			c-3.25,20.17-7.77,27.18-11.88,28.75c6.57,16,16.91,30.88,31.57,44.46c-15.43-4.92-28.28-15.69-38.02-33.51
			c-7.1,17.53-13.73,24.68-19.98,23.84c9.46,11.47,24.73,23.49,66.37,38.02c16.76-0.33,21.93-8.98,23.84-19.98
			c-9.78-16.91-11.99-38.4-13.39-96.55C325.06,260.89,278.04,222.79,228.13,213.95L228.13,213.95z"/>
		<path class="st0" d="M377.32,412.29c-5.71,21.77-17.09,25.09-29.75,24.37c2.31,5.11,6.81,13.98,19.25,16.13
			c17.26,2.99,31.4-6.17,31.21-30.09C394.03,413.81,383.8,409.03,377.32,412.29L377.32,412.29z"/>
		<path class="st0" d="M404.77,426.14c-3.36,15.32-7.38,26.75-15.38,27.03c3.89,11.44,19.25,21.85,44.28,34.87
			c-15.88,5.95-39.08-6.64-61.07-31.4c3.86,57.61,72.83,56.55,86.84,125.47c22.13-16.69,11.71-50.79,4.47-79.5
			c4.31-0.25,13.98,11.28,24.52,24.73C489.54,479.35,476.51,436.74,404.77,426.14L404.77,426.14z"/>
		<path class="st0" d="M366.47,314.95C309.9,195.69,124.49,159.5,48.1,209.14C20.78,187.19,2.67,133.62,20.79,72.4
			c7.66-25.89,27.55-18.58,22.56,11.11c-15.18,90.3,82.47,47.14,39.8-9.59L63.56,49.73c-22.16-30.34,5.8-41.43,61.73-34.01
			c87.25,11.58,153.9,19.84,228.78,84.28c6.81,16.46,7.83,36.08,0.93,60.02c13.8-9.28,16.1-37.47,19.14-57.01
			c64.45,12.49,134.36,52.54,108.22,90.8C449.81,241.48,411.44,287.85,366.47,314.95L366.47,314.95z"/>
		<path class="st0" d="M54.13,220.01l-6.01,27.46c9.09,0.88,14.15,4.88,11.6,14.82L29.9,311.73c7.34,7.95,12.72-4.98,22.73,2.75
			c28.75,22.23,48.38,12.05,37.57-10.11c25.28,11.27,39.37,19.86,39.76,48.8c-6.84-8.38-19.5-26.32-33.73-24.52
			c-5.62,14.48-25.16,13.18-35.86,9.89l-5.8,20.19l-4.51-19.12l-8.59,26.42l11.81,5.8c3.8-5.3,9.6-8.31,17.4-9.02
			c19.37,12.54,39.52,20.45,61.86,15.46c-9.64,13.98-30.21,14.26-59.28,3.87c-16.34,0.55-29.4-0.33-30.72,6.66
			c-4.53,24.21,14.72,14.41,40.38,13.32c16.37,5.92,30.63,19.43,31.14,22.55c-34.29-13.9-49.18-11.35-68.73-7.3
			c-9.93,17.63-11.82,37.13,1.5,45.75c-2.93-15.07,1.05-21.07,6.34-25.35c0.02,8.74-3.28,21.55,7.3,23.2
			c145.26,22.62,165.84-22.92,189.01-68.73c-2.72,28.49-10.52,78.84-92.83,110.44c-18.47,7.09,17.27,41.81,27.1,73.85
			c63.39-21.99,93.81-68.51,112.55-123.72c-10.97-15.17-24.63-47.32-39.52-87.2c55.49,41.15,91.33-151.65,2.58-68.3
			c-8.53,8.01-13.83,6.17-18.86-9.96c-13.43-43.05-9.31-61.4-35.51-74.96C171.1,194.86,94.24,197.06,54.13,220.01L54.13,220.01z
			 M230.58,299.85c-10.96,9.94-18.98,20.35-67.62,24.38c-10.48,19.05,8.02,57.97-12.86,108.29c27.53-12.11,18.56-41.23,24.08-92.05
			C199.31,331.97,230.17,321.68,230.58,299.85L230.58,299.85z M270.85,308.53c24.24-31.92,35.71-16.86,30.68,3.66
			c-2.91-9.75-4.57-22.07-17.84-7.05c7.1,5.79,10.99,9.27,3.32,23.23c-7.15,13-11.06,22.7-23.65,21.16
			c10.63-9.01,8.59-14.77,5.8-20.33C282.75,315.65,277.22,311.88,270.85,308.53L270.85,308.53z M97.82,226.63
			c-9.64,13.99,5.69,23.53,0,36.19c17.49-4.56,22.02,5.77,36.51,14.11l19.91-8.3l30.7,2.9c-4.03-8.77-15.22-14.77-28.63-19.91
			l12.45-3.32l17.84,4.15c-1.18-4.41-6.79-12.71-28.73-17.01c-36.17-7.08-35.41,5.44-51.33,9.52
			C101.05,240.36,98.66,234.76,97.82,226.63L97.82,226.63z"/>
		<path class="st2" d="M227.51,302.68c-9.77,9.03-20.51,17.9-64.54,21.55c-10.48,19.05,8.02,57.97-12.86,108.29l0.57-0.26
			c-0.61,0.79-1.25,1.57-1.91,2.34c16.26-48.96-3.1-90.66,12.18-113.85C195.14,317.19,208.19,311.54,227.51,302.68L227.51,302.68z"
			/>
		<path class="st2" d="M131.48,379.69c-7.28,16.89-21.7,19.13-60.44,6.6c-12.39-0.17-21.45,0.45-28.26,1.61
			c2.26-6.01,14.87-5.22,30.46-5.75C101.31,392.17,121.44,392.26,131.48,379.69L131.48,379.69z"/>
		<path class="st2" d="M98.21,262.72c17.17-4.3,21.74,5.93,36.13,14.21l19.91-8.3l29.62,2.8l-29.65,1
			c-11.15,3.48-17.47,7.38-19.2,11.68C118.67,263.7,105.8,263.18,98.21,262.72L98.21,262.72z"/>
		<path class="st2" d="M253.34,301.46c1.83-0.68,3.81-2.09,6.02-4.16c22.95-21.55,37.57-24.64,45.67-18.09
			C282.6,280.11,259.19,303.96,253.34,301.46L253.34,301.46z"/>
		<path class="st2" d="M265.5,349.69c-1.2,0.53-2.45,0.95-3.74,1.3c6.26-8.53,8.72-17.24,4.2-22.26c11.12-9.27,8.23-13.32,0-20.16
			c16.68-18.49,23.79-21.45,29.06-18.43c-5.4-0.55-13.57,4.42-24.18,18.39c6.37,3.35,11.9,7.12-1.68,20.67
			c2.78,5.56,4.82,11.32-5.8,20.33C264.11,349.63,264.82,349.68,265.5,349.69L265.5,349.69z"/>
		<path class="st1" d="M29.08,58.37c8.4-6.18,17.89,3.59,14.27,25.14c-12.4,73.78,50.51,58.47,50.68,19.45
			c9.34,10.4-11.71,45.6-37.53,40.04c-16.37-3.53-20.53-17.31-18.58-70.16c0.03-0.76-0.07-1.53-0.1-2.3
			C37.51,63.26,34.34,59.93,29.08,58.37L29.08,58.37z"/>
		<path class="st1" d="M127.43,379.2c-20.32,2.82-38.88-4.81-56.76-16.39c-7.8,0.71-13.6,3.72-17.4,9.02l-11.81-5.8l8.59-26.42
			l4.51,19.12l5.8-20.19c10.7,3.29,30.25,4.59,35.86-9.89c12.67-1.61,24.08,12.43,31.27,21.45c-27.46-17.16-36.04,8.47-54.95-2.31
			l-1.17,10.14C85.4,367.7,104.01,374.82,127.43,379.2L127.43,379.2z M90.47,304.95c10.2,21.76-9.34,31.57-37.84,9.54
			c-10.01-7.74-15.39,5.2-22.73-2.75l1.88-3.13c6.32,6.53,13.21-4.08,20.47-1C79.78,325.82,89.54,321.08,90.47,304.95L90.47,304.95z
			 M90.72,304.61l-0.23-0.1v-0.04L90.72,304.61L90.72,304.61z"/>
		<path class="st2" d="M104.34,203.81c-14.92,4.97-29.75,9.39-45.84,20.63l-2.42,19.32c10.66,2.8,13.79,9.77,10.29,20.39
			l-32.25,50.19c-1.37-0.25-2.77-1-4.24-2.6l29.82-49.44c2.56-9.94-2.51-13.95-11.6-14.82l6.01-27.46
			C67.7,212.25,85.46,206.86,104.34,203.81L104.34,203.81z"/>
		<path class="st1" d="M95.43,465.35c-10.77-0.98-22.4-2.43-34.96-4.38c-10.58-1.65-7.29-14.46-7.3-23.2
			c-5.28,4.28-9.27,10.27-6.34,25.35c-13.33-8.62-11.44-28.12-1.5-45.75c19.27-3.99,34.02-6.53,67.28,6.72l1.48,1.03
			c0,0-32.72-6.96-40.18,13.25C70.63,447.24,83,457.57,95.43,465.35L95.43,465.35z"/>
		<path class="st1" d="M145.57,257c-10.17-4.88-17.12,0.01-25.19,0.47C131.85,270.18,139.62,260.92,145.57,257L145.57,257z"/>
		<path class="st1" d="M98.16,262c-9.63-28.78-5.19-27.94,0.04-36.83c-0.08,0.97-0.16,1.91-0.23,2.82c-0.06-0.45-0.11-0.9-0.16-1.37
			C88.39,240.33,102.85,249.74,98.16,262L98.16,262z M106.7,244.92c24.85-22.85,57.57-18.28,72.09-1.88
			c-4.34-2.87-10.94-5.65-20.92-7.6C121.82,228.38,122.46,240.8,106.7,244.92L106.7,244.92z"/>
		<path class="st1" d="M245.42,417c-0.18,16.03-4.41,50.02-33.31,81.65c-14.71,16.1-0.62,49.23,5.69,61.98
			c-10.15,6.18-21.45,11.52-34.04,15.89c-9.83-32.04-45.57-66.76-27.1-73.85C218.43,478.96,238.24,444.68,245.42,417L245.42,417z"/>
		<path class="st3" d="M177.64,643.21c0.08-27.25,7.3-48.13,18.36-55.52c49.12-18.66,86.43-55.51,111.38-133.5
			c1.98,0.08,3.97,0.34,5.95,0.83c-6.78,29.81-21,95.02-115.02,141.35C188.54,601.19,181.63,625.91,177.64,643.21L177.64,643.21z"/>
		<path class="st3" d="M63.95,50.21l-0.39-0.48c-22.16-30.34,5.8-41.43,61.73-34.01c87.25,11.58,153.9,19.84,228.78,84.28
			c5.23,12.64,7.05,27.14,4.48,44.02c-2.25-8.92-5.19-19.3-10.62-34.91C319.45,56.25,92.63,0.53,65.94,29.84
			C61.91,34.26,61.99,41.88,63.95,50.21L63.95,50.21z"/>
		<path class="st1" d="M46.63,207.92c92.42-57.6,262.61-24.32,331.91,99.2c-3.97,2.76-8,5.38-12.08,7.84
			C309.9,195.69,124.49,159.5,48.1,209.14C47.61,208.74,47.12,208.34,46.63,207.92L46.63,207.92z"/>
		<path class="st2" d="M34.11,56.54c-21.18,34.14-22.2,101.77,19.12,149.49c-1.76,0.99-3.46,2.03-5.12,3.11
			C20.78,187.19,2.67,133.62,20.79,72.4C24,61.57,29.34,56.55,34.11,56.54L34.11,56.54z"/>
		<path class="st1" d="M162.77,201.74c16.67,1.58,31.57,5.14,42.23,10.65c26.2,13.55,22.08,31.91,35.51,74.96
			c2.93,9.38,5.94,13.92,9.63,14.51l0.12,0.6c-9.53-4.25-17.31-17.95-25.01-52.14C219.13,223.17,201.92,215.14,162.77,201.74
			L162.77,201.74z"/>
		<path class="st1" d="M252.16,293.8c-2.29-1.06-3.96-8.26-5.75-15.96c-9.87-42.65-6.2-50.49-18.28-63.88
			c46.23,8.19,89.99,41.49,122.19,88.69c-37.74-41.76-66.59-59.17-93.95-72.51c10.19,8.74,19.73,17.29,20.09,23.32l-21.53-7.53
			c4.46,2.52,9.13,5.61,16.87,16.5l-19.37-2.87c6.73,5.19,11.35,10.42,8.25,15.79C254.64,277.67,252.72,284.92,252.16,293.8
			L252.16,293.8z"/>
		<path class="st3" d="M251.81,293.59c-2.11-1.6-3.71-8.45-5.4-15.76c-9.87-42.65-6.2-50.49-18.28-63.88
			c2.64,0.47,5.27,1.01,7.88,1.64C244.29,231.37,244.94,251.91,251.81,293.59L251.81,293.59z"/>
		<path class="st1" d="M276.5,345.18c3.79-3.85,6.69-9.86,10.51-16.81c7.67-13.96,3.78-17.44-3.32-23.23
			c10.85-12.28,13.93-6.29,16.29,1.63c-1.44-3.02-3.93-7.16-6.34-6.2c-3.69,1.48-6.65,4.81-6.65,4.81
			C297.71,309.24,293.86,332.51,276.5,345.18L276.5,345.18z"/>
		<path class="st4" d="M293.22,448.2c1.05,1.68,2.08,3.21,3.09,4.6c-18.74,55.21-49.16,101.72-112.55,123.72
			c-0.64-2.08-1.39-4.17-2.22-6.27C241.09,547.72,269.13,499.57,293.22,448.2L293.22,448.2z"/>
		<path class="st1" d="M302.86,277.78c27.17,14.4-3.73,119.22-46.08,87.82c14.89,39.88,28.55,72.04,39.52,87.2
			c-1.22,3.61-2.5,7.18-3.83,10.71c-21.41-51.73-31.96-67.76-40.78-104.06C293.02,390.34,322.5,305.93,302.86,277.78L302.86,277.78z
			"/>
		<path class="st1" d="M301.07,369.09c0.26,8.16-0.24,17.81-8.52,25.05c15.67,13.7,29.99,20.01,58.59,31.09
			c9.45,2.06,14.76-5.48,19.84-13.56c-2.05,10.53-7.39,18.69-23.66,19.01c-41.64-14.53-56.91-26.55-66.37-38.02
			c6.25,0.84,12.87-6.31,19.98-23.84L301.07,369.09L301.07,369.09z"/>
		<path class="st3" d="M311.5,354.29c5.14,13.81,12.24,28.56,30.98,48.82c-2.64-0.11-5.41-0.82-8.41-2.57
			c1.59,0.67,3.22,1.26,4.88,1.79c-14.66-13.59-25.01-28.46-31.57-44.46C308.72,357.35,310.12,356.25,311.5,354.29L311.5,354.29z"/>
		<path class="st3" d="M300.22,266.19c10.38-0.88,22.52,6.84,25.81,26.68c23.1,26.53,19.27,62.97,16.23,83.76l-1.04-5.79l0.3,0.56
			c0.11-7.38-0.04-15.94-1.05-24.94c-1.93-17.26-6.99-36.17-19.36-51.56C318.25,276.96,310.39,267.93,300.22,266.19L300.22,266.19z"
			/>
		<path class="st3" d="M373.07,110.3c0.36-2.52,0.71-4.96,1.07-7.28c61.75,11.96,128.49,49.22,111.01,85.97
			C485.1,156.19,454.86,128.71,373.07,110.3L373.07,110.3z"/>
		<path class="st4" d="M481.64,158.06c7.66,11.49,8.95,23.71,0.72,35.77c-32.55,47.66-70.93,94.02-115.9,121.13
			c-0.14-0.3-0.28-0.6-0.43-0.9C409.12,269.13,475.63,213.7,481.64,158.06L481.64,158.06z"/>
		<path class="st4" d="M353.58,307.54c1.42,2.18,2.82,4.39,4.19,6.62c1.4,58.14,3.61,79.64,13.39,96.55
			c-0.03,0.18-0.06,0.37-0.1,0.55C349.48,378.19,349.56,344.76,353.58,307.54L353.58,307.54z"/>
		<path class="st3" d="M378.96,411.65c1.01,11.51-1.93,29.72-30.95,25.96c-0.15-0.33-0.3-0.65-0.43-0.96
			c12.66,0.72,24.04-2.6,29.75-24.37C377.84,412.02,378.39,411.81,378.96,411.65L378.96,411.65z"/>
		<path class="st1" d="M361.45,434.84c4.54,11.42,13.9,15.75,29.07,11.51c-5.74,6.08-14.25,8.08-23.7,6.44
			c-12.43-2.15-16.93-11.02-19.25-16.13C352.48,436.94,357.18,436.61,361.45,434.84L361.45,434.84z"/>
		<path class="st3" d="M393.73,451.73c7.9,10.28,18.91,21.63,40.6,36.65c-0.43-0.03-0.87-0.06-1.31-0.11
			c0.22-0.07,0.44-0.15,0.66-0.23c-25.03-13.02-40.39-23.42-44.28-34.87C390.98,453.11,392.42,452.61,393.73,451.73L393.73,451.73z"
			/>
		<path class="st1" d="M463.4,578.6c-1.19,1.24-2.5,2.42-3.96,3.51c-14.01-68.92-82.99-67.87-86.84-125.47
			c2.09,2.35,4.18,4.59,6.29,6.72C391.37,505.8,452.31,517.17,463.4,578.6L463.4,578.6z"/>
		<path class="st1" d="M404.25,428.46c0.17-0.76,0.35-1.54,0.52-2.31c69.52,10.27,83.92,50.6,83.73,96.76
			C483.48,487.52,469.07,443.07,404.25,428.46L404.25,428.46z"/>
		<path class="st3" d="M464.11,502.6c-0.76-2.67-1.47-5.48-2.12-8.45c14.6,10.33,21.44,19.72,26.5,30.05
			c-0.01,1.04-0.03,2.09-0.05,3.14C478.05,514.08,468.51,502.69,464.11,502.6L464.11,502.6z"/>
		<path class="st4" d="M317.73,456.5c7.17,3.1,14.41,9.68,21.75,22.08c-9.23,74.9-29.71,128.91-58.42,157.23
			c-27.87-11.13-32.67-32.33-56.98-32.08c18.98-3.63,35.38,6.07,55.55,26.61c26.26-33.89,45.08-86.13,53.29-149.37
			C331.33,472.6,324.99,464.52,317.73,456.5L317.73,456.5z"/>
		<path class="st0" d="M126.39,548.96c2.67-1.71,5.44-2.49,8.25-2.31c-4.96,16.71,1.34,41.14,26.99,78.84
			c-4.81-5.85-9.2-10.06-13.23-12.96C131.2,589.46,124.18,574.72,126.39,548.96L126.39,548.96z"/>
		<path class="st3" d="M245.73,399.65c-20.06,39.31-43.31,75.69-151.38,65.6C189.14,467.21,215.65,442.48,245.73,399.65
			L245.73,399.65z"/>
		<path class="st3" d="M91.39,304.9c27.9,2.96,40.72,19.16,40.64,51.86c-0.67-1.35-1.36-2.7-2.08-4.04
			C129.43,324.6,115.79,315.86,91.39,304.9L91.39,304.9z M90.41,304.81l0.04,0.08l0.09,0.18l-0.14-0.26L90.41,304.81L90.41,304.81z"
			/>
		<path class="st0" d="M96.51,328.62c-1.58,8.54,1.1,17.12-33.68,13.66l-8.26,20.87l-0.07-4.66l0.06,0.24l5.8-20.19
			c10.7,3.29,30.25,4.59,35.86-9.89C96.32,328.64,96.42,328.63,96.51,328.62L96.51,328.62z"/>
		<path class="st1" d="M41.95,396.74c5.48,4.86,17.59,4.93,40.57,0.63c15.26,3.39,29.98,13.64,30.89,25.92
			c-3.02-4.62-15.92-15.91-30.49-21.17C60.66,403.06,43.23,410.56,41.95,396.74L41.95,396.74z"/>
		<path class="st0" d="M52.2,438.58c-4.79,4.24-8.12,10.39-5.38,24.53c-2.39-1.55-4.29-3.44-5.74-5.61
			C41.86,443.62,46.46,439.65,52.2,438.58L52.2,438.58z"/>
		<path class="st3" d="M249.11,395.95c0.12-0.18,0.25-0.35,0.38-0.53c-2.31,24.58,4.93,68.3-84.29,112.24
			c-5.54,2.73-9.89,4.2-13.45,5.15c-0.95-4.81,0.26-8.35,4.92-10.13C235.49,472.41,245.98,424.94,249.11,395.95L249.11,395.95z"/>
		<path class="st3" d="M120.93,257.43c7.38-0.61,13.9-4.69,22.93-1.18C138.41,260.68,132,263.36,120.93,257.43L120.93,257.43z"/>
		<path class="st1" d="M228.61,308.61c-1.92,7.73-7.02,20.53-50.75,35.41c-2.54,4.09,3.84,77.53-21.52,85.05
			c19.87-13.75,12.79-42.08,17.84-88.6C195.68,333.2,221.38,324.61,228.61,308.61L228.61,308.61z M217.96,310.37
			c-2.17,1.42-4.64,2.79-7.54,4.1L217.96,310.37L217.96,310.37z"/>
		<path class="st1" d="M357.13,158.37c11.93-10.63,14.14-36.86,17.02-55.35c3.65,0.71,7.32,1.5,10.99,2.38
			C376.6,140.35,363.48,157,357.13,158.37L357.13,158.37z"/>
	</g>
</g>
<g id="Layer_1">
	<g>
		<path class="st5" d="M307.39,454.19c-24.95,78-62.27,114.84-111.38,133.5c-11.2,7.48-18.48,28.8-18.36,56.56
			c9.17-18.99,12.24-32.57,29.53-37.66c40.21-11.83,40.54,15.9,73.89,29.21c28.71-28.32,49.19-82.32,58.42-157.23
			C328.59,460.2,317.94,454.61,307.39,454.19L307.39,454.19z"/>
	</g>
	<g>
		<path class="st6" d="M134.64,546.65c-4.96,16.71,1.34,41.14,26.99,78.84c-39.46-47.96-50.72,13.98-62.33,9.81
			C103.28,577.05,118.3,545.63,134.64,546.65L134.64,546.65z"/>
	</g>
	<g>
		<path class="st5" d="M228.13,213.95c12.08,13.4,8.4,21.23,18.28,63.88c2.35,10.14,4.52,19.41,8.12,14.95
			c26.98-33.26,59.98-39.18,66.58,2.11c12.37,15.39,17.43,34.3,19.36,51.56c1,9.01,1.15,17.56,1.05,24.94l-22.27-42.28
			c-3.25,20.17-7.77,27.18-11.88,28.75c6.57,16,16.91,30.88,31.57,44.46c-15.43-4.92-28.28-15.69-38.02-33.51
			c-7.1,17.53-13.73,24.68-19.98,23.84c9.46,11.47,24.73,23.49,66.37,38.02c16.76-0.33,21.93-8.98,23.84-19.98
			c-9.78-16.91-11.99-38.4-13.39-96.55C325.06,260.89,278.04,222.79,228.13,213.95L228.13,213.95z"/>
	</g>
	<g>
		<path class="st5" d="M377.32,412.29c-5.71,21.77-17.09,25.09-29.75,24.37c2.31,5.11,6.81,13.98,19.25,16.13
			c17.26,2.99,31.4-6.17,31.21-30.09C394.03,413.81,383.8,409.03,377.32,412.29L377.32,412.29z"/>
	</g>
	<g>
		<path class="st5" d="M404.77,426.14c-3.36,15.32-7.38,26.75-15.38,27.03c3.89,11.44,19.25,21.85,44.28,34.87
			c-15.88,5.95-39.08-6.64-61.07-31.4c3.86,57.61,72.83,56.55,86.84,125.47c22.13-16.69,11.71-50.79,4.47-79.5
			c4.31-0.25,13.98,11.28,24.52,24.73C489.54,479.35,476.51,436.74,404.77,426.14L404.77,426.14z"/>
	</g>
	<g>
		<path class="st5" d="M366.47,314.95C309.9,195.69,124.49,159.5,48.1,209.14C20.78,187.19,2.67,133.62,20.79,72.4
			c7.66-25.89,27.55-18.58,22.56,11.11c-15.18,90.3,82.47,47.14,39.8-9.59L63.56,49.73c-22.16-30.34,5.8-41.43,61.73-34.01
			c87.25,11.58,153.9,19.84,228.78,84.28c6.81,16.46,7.83,36.08,0.93,60.02c13.8-9.28,16.1-37.47,19.14-57.01
			c64.45,12.49,134.36,52.54,108.22,90.8C449.81,241.48,411.44,287.85,366.47,314.95L366.47,314.95z"/>
	</g>
	<g>
		<path class="st5" d="M54.13,220.01l-6.01,27.46c9.09,0.88,14.15,4.88,11.6,14.82L29.9,311.73c7.34,7.95,12.72-4.98,22.73,2.75
			c28.75,22.23,48.38,12.05,37.57-10.11c25.28,11.27,39.37,19.86,39.76,48.8c-6.84-8.38-19.5-26.32-33.73-24.52
			c-5.62,14.48-25.16,13.18-35.86,9.89l-5.8,20.19l-4.51-19.12l-8.59,26.42l11.81,5.8c3.8-5.3,9.6-8.31,17.4-9.02
			c19.37,12.54,39.52,20.45,61.86,15.46c-9.64,13.98-30.21,14.26-59.28,3.87c-16.34,0.55-29.4-0.33-30.72,6.66
			c-4.53,24.21,14.72,14.41,40.38,13.32c16.37,5.92,30.63,19.43,31.14,22.55c-34.29-13.9-49.18-11.35-68.73-7.3
			c-9.93,17.63-11.82,37.13,1.5,45.75c-2.93-15.07,1.05-21.07,6.34-25.35c0.02,8.74-3.28,21.55,7.3,23.2
			c145.26,22.62,165.84-22.92,189.01-68.73c-2.72,28.49-10.52,78.84-92.83,110.44c-18.47,7.09,17.27,41.81,27.1,73.85
			c63.39-21.99,93.81-68.51,112.55-123.72c-10.97-15.17-24.63-47.32-39.52-87.2c55.49,41.15,91.33-151.65,2.58-68.3
			c-8.53,8.01-13.83,6.17-18.86-9.96c-13.43-43.05-9.31-61.4-35.51-74.96C171.1,194.86,94.24,197.06,54.13,220.01L54.13,220.01z
			 M230.58,299.85c-10.96,9.94-18.98,20.35-67.62,24.38c-10.48,19.05,8.02,57.97-12.86,108.29c27.53-12.11,18.56-41.23,24.08-92.05
			C199.31,331.97,230.17,321.68,230.58,299.85L230.58,299.85z M270.85,308.53c24.24-31.92,35.71-16.86,30.68,3.66
			c-2.91-9.75-4.57-22.07-17.84-7.05c7.1,5.79,10.99,9.27,3.32,23.23c-7.15,13-11.06,22.7-23.65,21.16
			c10.63-9.01,8.59-14.77,5.8-20.33C282.75,315.65,277.22,311.88,270.85,308.53L270.85,308.53z M97.82,226.63
			c-9.64,13.99,5.69,23.53,0,36.19c17.49-4.56,22.02,5.77,36.51,14.11l19.91-8.3l30.7,2.9c-4.03-8.77-15.22-14.77-28.63-19.91
			l12.45-3.32l17.84,4.15c-1.18-4.41-6.79-12.71-28.73-17.01c-36.17-7.08-35.41,5.44-51.33,9.52
			C101.05,240.36,98.66,234.76,97.82,226.63L97.82,226.63z"/>
	</g>
	<g>
		<path class="st7" d="M227.51,302.68c-9.77,9.03-20.51,17.9-64.54,21.55c-10.48,19.05,8.02,57.97-12.86,108.29l0.57-0.26
			c-0.61,0.79-1.25,1.57-1.91,2.34c16.26-48.96-3.1-90.66,12.18-113.85C195.14,317.19,208.19,311.54,227.51,302.68L227.51,302.68z"
			/>
	</g>
	<g>
		<path class="st7" d="M131.48,379.69c-7.28,16.89-21.7,19.13-60.44,6.6c-12.39-0.17-21.45,0.45-28.26,1.61
			c2.26-6.01,14.87-5.22,30.46-5.75C101.31,392.17,121.44,392.26,131.48,379.69L131.48,379.69z"/>
	</g>
	<g>
		<path class="st7" d="M98.21,262.72c17.17-4.3,21.74,5.93,36.13,14.21l19.91-8.3l29.62,2.8l-29.65,1
			c-11.15,3.48-17.47,7.38-19.2,11.68C118.67,263.7,105.8,263.18,98.21,262.72L98.21,262.72z"/>
	</g>
	<g>
		<path class="st7" d="M253.34,301.46c1.83-0.68,3.81-2.09,6.02-4.16c22.95-21.55,37.57-24.64,45.67-18.09
			C282.6,280.11,259.19,303.96,253.34,301.46L253.34,301.46z"/>
	</g>
	<g>
		<path class="st7" d="M265.5,349.69c-1.2,0.53-2.45,0.95-3.74,1.3c6.26-8.53,8.72-17.24,4.2-22.26c11.12-9.27,8.23-13.32,0-20.16
			c16.68-18.49,23.79-21.45,29.06-18.43c-5.4-0.55-13.57,4.42-24.18,18.39c6.37,3.35,11.9,7.12-1.68,20.67
			c2.78,5.56,4.82,11.32-5.8,20.33C264.11,349.63,264.82,349.68,265.5,349.69L265.5,349.69z"/>
	</g>
	<g>
		<path class="st6" d="M29.08,58.37c8.4-6.18,17.89,3.59,14.27,25.14c-12.4,73.78,50.51,58.47,50.68,19.45
			c9.34,10.4-11.71,45.6-37.53,40.04c-16.37-3.53-20.53-17.31-18.58-70.16c0.03-0.76-0.07-1.53-0.1-2.3
			C37.51,63.26,34.34,59.93,29.08,58.37L29.08,58.37z"/>
	</g>
	<g>
		<path class="st6" d="M127.43,379.2c-20.32,2.82-38.88-4.81-56.76-16.39c-7.8,0.71-13.6,3.72-17.4,9.02l-11.81-5.8l8.59-26.42
			l4.51,19.12l5.8-20.19c10.7,3.29,30.25,4.59,35.86-9.89c12.67-1.61,24.08,12.43,31.27,21.45c-27.46-17.16-36.04,8.47-54.95-2.31
			l-1.17,10.14C85.4,367.7,104.01,374.82,127.43,379.2L127.43,379.2z M90.47,304.95c10.2,21.76-9.34,31.57-37.84,9.54
			c-10.01-7.74-15.39,5.2-22.73-2.75l1.88-3.13c6.32,6.53,13.21-4.08,20.47-1C79.78,325.82,89.54,321.08,90.47,304.95L90.47,304.95z
			 M90.72,304.61l-0.23-0.1v-0.04L90.72,304.61L90.72,304.61z"/>
	</g>
	<g>
		<path class="st7" d="M104.34,203.81c-14.92,4.97-29.75,9.39-45.84,20.63l-2.42,19.32c10.66,2.8,13.79,9.77,10.29,20.39
			l-32.25,50.19c-1.37-0.25-2.77-1-4.24-2.6l29.82-49.44c2.56-9.94-2.51-13.95-11.6-14.82l6.01-27.46
			C67.7,212.25,85.46,206.86,104.34,203.81L104.34,203.81z"/>
	</g>
	<g>
		<path class="st6" d="M95.43,465.35c-10.77-0.98-22.4-2.43-34.96-4.38c-10.58-1.65-7.29-14.46-7.3-23.2
			c-5.28,4.28-9.27,10.27-6.34,25.35c-13.33-8.62-11.44-28.12-1.5-45.75c19.27-3.99,34.02-6.53,67.28,6.72l1.48,1.03
			c0,0-32.72-6.96-40.18,13.25C70.63,447.24,83,457.57,95.43,465.35L95.43,465.35z"/>
	</g>
	<g>
		<path class="st6" d="M145.57,257c-10.17-4.88-17.12,0.01-25.19,0.47C131.85,270.18,139.62,260.92,145.57,257L145.57,257z"/>
	</g>
	<g>
		<path class="st6" d="M98.16,262c-9.63-28.78-5.19-27.94,0.04-36.83c-0.08,0.97-0.16,1.91-0.23,2.82c-0.06-0.45-0.11-0.9-0.16-1.37
			C88.39,240.33,102.85,249.74,98.16,262L98.16,262z M106.7,244.92c24.85-22.85,57.57-18.28,72.09-1.88
			c-4.34-2.87-10.94-5.65-20.92-7.6C121.82,228.38,122.46,240.8,106.7,244.92L106.7,244.92z"/>
	</g>
	<g>
		<path class="st6" d="M245.42,417c-0.18,16.03-4.41,50.02-33.31,81.65c-14.71,16.1-0.62,49.23,5.69,61.98
			c-10.15,6.18-21.45,11.52-34.04,15.89c-9.83-32.04-45.57-66.76-27.1-73.85C218.43,478.96,238.24,444.68,245.42,417L245.42,417z"/>
	</g>
	<g>
		<path class="st8" d="M177.64,643.21c0.08-27.25,7.3-48.13,18.36-55.52c49.12-18.66,86.43-55.51,111.38-133.5
			c1.98,0.08,3.97,0.34,5.95,0.83c-6.78,29.81-21,95.02-115.02,141.35C188.54,601.19,181.63,625.91,177.64,643.21L177.64,643.21z"/>
	</g>
	<g>
		<path class="st8" d="M63.95,50.21l-0.39-0.48c-22.16-30.34,5.8-41.43,61.73-34.01c87.25,11.58,153.9,19.84,228.78,84.28
			c5.23,12.64,7.05,27.14,4.48,44.02c-2.25-8.92-5.19-19.3-10.62-34.91C319.45,56.25,92.63,0.53,65.94,29.84
			C61.91,34.26,61.99,41.88,63.95,50.21L63.95,50.21z"/>
	</g>
	<g>
		<path class="st6" d="M46.63,207.92c92.42-57.6,262.61-24.32,331.91,99.2c-3.97,2.76-8,5.38-12.08,7.84
			C309.9,195.69,124.49,159.5,48.1,209.14C47.61,208.74,47.12,208.34,46.63,207.92L46.63,207.92z"/>
	</g>
	<g>
		<path class="st7" d="M34.11,56.54c-21.18,34.14-22.2,101.77,19.12,149.49c-1.76,0.99-3.46,2.03-5.12,3.11
			C20.78,187.19,2.67,133.62,20.79,72.4C24,61.57,29.34,56.55,34.11,56.54L34.11,56.54z"/>
	</g>
	<g>
		<path class="st6" d="M162.77,201.74c16.67,1.58,31.57,5.14,42.23,10.65c26.2,13.55,22.08,31.91,35.51,74.96
			c2.93,9.38,5.94,13.92,9.63,14.51l0.12,0.6c-9.53-4.25-17.31-17.95-25.01-52.14C219.13,223.17,201.92,215.14,162.77,201.74
			L162.77,201.74z"/>
	</g>
	<g>
		<path class="st6" d="M252.16,293.8c-2.29-1.06-3.96-8.26-5.75-15.96c-9.87-42.65-6.2-50.49-18.28-63.88
			c46.23,8.19,89.99,41.49,122.19,88.69c-37.74-41.76-66.59-59.17-93.95-72.51c10.19,8.74,19.73,17.29,20.09,23.32l-21.53-7.53
			c4.46,2.52,9.13,5.61,16.87,16.5l-19.37-2.87c6.73,5.19,11.35,10.42,8.25,15.79C254.64,277.67,252.72,284.92,252.16,293.8
			L252.16,293.8z"/>
	</g>
	<g>
		<path class="st8" d="M251.81,293.59c-2.11-1.6-3.71-8.45-5.4-15.76c-9.87-42.65-6.2-50.49-18.28-63.88
			c2.64,0.47,5.27,1.01,7.88,1.64C244.29,231.37,244.94,251.91,251.81,293.59L251.81,293.59z"/>
	</g>
	<g>
		<path class="st6" d="M276.5,345.18c3.79-3.85,6.69-9.86,10.51-16.81c7.67-13.96,3.78-17.44-3.32-23.23
			c10.85-12.28,13.93-6.29,16.29,1.63c-1.44-3.02-3.93-7.16-6.34-6.2c-3.69,1.48-6.65,4.81-6.65,4.81
			C297.71,309.24,293.86,332.51,276.5,345.18L276.5,345.18z"/>
	</g>
	<g>
		<path class="st9" d="M293.22,448.2c1.05,1.68,2.08,3.21,3.09,4.6c-18.74,55.21-49.16,101.72-112.55,123.72
			c-0.64-2.08-1.39-4.17-2.22-6.27C241.09,547.72,269.13,499.57,293.22,448.2L293.22,448.2z"/>
	</g>
	<g>
		<path class="st6" d="M302.86,277.78c27.17,14.4-3.73,119.22-46.08,87.82c14.89,39.88,28.55,72.04,39.52,87.2
			c-1.22,3.61-2.5,7.18-3.83,10.71c-21.41-51.73-31.96-67.76-40.78-104.06C293.02,390.34,322.5,305.93,302.86,277.78L302.86,277.78z
			"/>
	</g>
	<g>
		<path class="st6" d="M301.07,369.09c0.26,8.16-0.24,17.81-8.52,25.05c15.67,13.7,29.99,20.01,58.59,31.09
			c9.45,2.06,14.76-5.48,19.84-13.56c-2.05,10.53-7.39,18.69-23.66,19.01c-41.64-14.53-56.91-26.55-66.37-38.02
			c6.25,0.84,12.87-6.31,19.98-23.84L301.07,369.09L301.07,369.09z"/>
	</g>
	<g>
		<path class="st8" d="M311.5,354.29c5.14,13.81,12.24,28.56,30.98,48.82c-2.64-0.11-5.41-0.82-8.41-2.57
			c1.59,0.67,3.22,1.26,4.88,1.79c-14.66-13.59-25.01-28.46-31.57-44.46C308.72,357.35,310.12,356.25,311.5,354.29L311.5,354.29z"/>
	</g>
	<g>
		<path class="st8" d="M300.22,266.19c10.38-0.88,22.52,6.84,25.81,26.68c23.1,26.53,19.27,62.97,16.23,83.76l-1.04-5.79l0.3,0.56
			c0.11-7.38-0.04-15.94-1.05-24.94c-1.93-17.26-6.99-36.17-19.36-51.56C318.25,276.96,310.39,267.93,300.22,266.19L300.22,266.19z"
			/>
	</g>
	<g>
		<path class="st8" d="M373.07,110.3c0.36-2.52,0.71-4.96,1.07-7.28c61.75,11.96,128.49,49.22,111.01,85.97
			C485.1,156.19,454.86,128.71,373.07,110.3L373.07,110.3z"/>
	</g>
	<g>
		<path class="st9" d="M481.64,158.06c7.66,11.49,8.95,23.71,0.72,35.77c-32.55,47.66-70.93,94.02-115.9,121.13
			c-0.14-0.3-0.28-0.6-0.43-0.9C409.12,269.13,475.63,213.7,481.64,158.06L481.64,158.06z"/>
	</g>
	<g>
		<path class="st9" d="M353.58,307.54c1.42,2.18,2.82,4.39,4.19,6.62c1.4,58.14,3.61,79.64,13.39,96.55
			c-0.03,0.18-0.06,0.37-0.1,0.55C349.48,378.19,349.56,344.76,353.58,307.54L353.58,307.54z"/>
	</g>
	<g>
		<path class="st8" d="M378.96,411.65c1.01,11.51-1.93,29.72-30.95,25.96c-0.15-0.33-0.3-0.65-0.43-0.96
			c12.66,0.72,24.04-2.6,29.75-24.37C377.84,412.02,378.39,411.81,378.96,411.65L378.96,411.65z"/>
	</g>
	<g>
		<path class="st6" d="M361.45,434.84c4.54,11.42,13.9,15.75,29.07,11.51c-5.74,6.08-14.25,8.08-23.7,6.44
			c-12.43-2.15-16.93-11.02-19.25-16.13C352.48,436.94,357.18,436.61,361.45,434.84L361.45,434.84z"/>
	</g>
	<g>
		<path class="st8" d="M393.73,451.73c7.9,10.28,18.91,21.63,40.6,36.65c-0.43-0.03-0.87-0.06-1.31-0.11
			c0.22-0.07,0.44-0.15,0.66-0.23c-25.03-13.02-40.39-23.42-44.28-34.87C390.98,453.11,392.42,452.61,393.73,451.73L393.73,451.73z"
			/>
	</g>
	<g>
		<path class="st6" d="M463.4,578.6c-1.19,1.24-2.5,2.42-3.96,3.51c-14.01-68.92-82.99-67.87-86.84-125.47
			c2.09,2.35,4.18,4.59,6.29,6.72C391.37,505.8,452.31,517.17,463.4,578.6L463.4,578.6z"/>
	</g>
	<g>
		<path class="st6" d="M404.25,428.46c0.17-0.76,0.35-1.54,0.52-2.31c69.52,10.27,83.92,50.6,83.73,96.76
			C483.48,487.52,469.07,443.07,404.25,428.46L404.25,428.46z"/>
	</g>
	<g>
		<path class="st8" d="M464.11,502.6c-0.76-2.67-1.47-5.48-2.12-8.45c14.6,10.33,21.44,19.72,26.5,30.05
			c-0.01,1.04-0.03,2.09-0.05,3.14C478.05,514.08,468.51,502.69,464.11,502.6L464.11,502.6z"/>
	</g>
	<g>
		<path class="st9" d="M317.73,456.5c7.17,3.1,14.41,9.68,21.75,22.08c-9.23,74.9-29.71,128.91-58.42,157.23
			c-27.87-11.13-32.67-32.33-56.98-32.08c18.98-3.63,35.38,6.07,55.55,26.61c26.26-33.89,45.08-86.13,53.29-149.37
			C331.33,472.6,324.99,464.52,317.73,456.5L317.73,456.5z"/>
	</g>
	<g>
		<path class="st5" d="M126.39,548.96c2.67-1.71,5.44-2.49,8.25-2.31c-4.96,16.71,1.34,41.14,26.99,78.84
			c-4.81-5.85-9.2-10.06-13.23-12.96C131.2,589.46,124.18,574.72,126.39,548.96L126.39,548.96z"/>
	</g>
	<g>
		<path class="st8" d="M245.73,399.65c-20.06,39.31-43.31,75.69-151.38,65.6C189.14,467.21,215.65,442.48,245.73,399.65
			L245.73,399.65z"/>
	</g>
	<g>
		<path class="st8" d="M91.39,304.9c27.9,2.96,40.72,19.16,40.64,51.86c-0.67-1.35-1.36-2.7-2.08-4.04
			C129.43,324.6,115.79,315.86,91.39,304.9L91.39,304.9z M90.41,304.81l0.04,0.08l0.09,0.18l-0.14-0.26L90.41,304.81L90.41,304.81z"
			/>
	</g>
	<g>
		<path class="st5" d="M96.51,328.62c-1.58,8.54,1.1,17.12-33.68,13.66l-8.26,20.87l-0.07-4.66l0.06,0.24l5.8-20.19
			c10.7,3.29,30.25,4.59,35.86-9.89C96.32,328.64,96.42,328.63,96.51,328.62L96.51,328.62z"/>
	</g>
	<g>
		<path class="st6" d="M41.95,396.74c5.48,4.86,17.59,4.93,40.57,0.63c15.26,3.39,29.98,13.64,30.89,25.92
			c-3.02-4.62-15.92-15.91-30.49-21.17C60.66,403.06,43.23,410.56,41.95,396.74L41.95,396.74z"/>
	</g>
	<g>
		<path class="st5" d="M52.2,438.58c-4.79,4.24-8.12,10.39-5.38,24.53c-2.39-1.55-4.29-3.44-5.74-5.61
			C41.86,443.62,46.46,439.65,52.2,438.58L52.2,438.58z"/>
	</g>
	<g>
		<path class="st8" d="M249.11,395.95c0.12-0.18,0.25-0.35,0.38-0.53c-2.31,24.58,4.93,68.3-84.29,112.24
			c-5.54,2.73-9.89,4.2-13.45,5.15c-0.95-4.81,0.26-8.35,4.92-10.13C235.49,472.41,245.98,424.94,249.11,395.95L249.11,395.95z"/>
	</g>
	<g>
		<path class="st8" d="M120.93,257.43c7.38-0.61,13.9-4.69,22.93-1.18C138.41,260.68,132,263.36,120.93,257.43L120.93,257.43z"/>
	</g>
	<g>
		<path class="st6" d="M228.61,308.61c-1.92,7.73-7.02,20.53-50.75,35.41c-2.54,4.09,3.84,77.53-21.52,85.05
			c19.87-13.75,12.79-42.08,17.84-88.6C195.68,333.2,221.38,324.61,228.61,308.61L228.61,308.61z M217.96,310.37
			c-2.17,1.42-4.64,2.79-7.54,4.1L217.96,310.37L217.96,310.37z"/>
	</g>
	<g>
		<path class="st6" d="M357.13,158.37c11.93-10.63,14.14-36.86,17.02-55.35c3.65,0.71,7.32,1.5,10.99,2.38
			C376.6,140.35,363.48,157,357.13,158.37L357.13,158.37z"/>
	</g>
</g>
<g id="Layer_3">
	<g>
		<g>
			<path class="st10" d="M719.65,237.44c-9.09-4.45-22.73-6.68-40.92-6.68c-18.19,0-31.87,2.23-41.04,6.68
				c-9.18,4.45-15.54,12.33-19.09,23.63c-3.56,11.3-5.33,28.24-5.33,50.84c0,22.6,1.77,39.5,5.33,50.71
				c3.55,11.22,9.92,19.05,19.09,23.5s22.85,6.68,41.04,6.68c18.18,0,31.82-2.23,40.92-6.68c9.09-4.45,15.46-12.33,19.09-23.63
				c3.63-11.29,5.46-28.16,5.46-50.59c0-22.59-1.82-39.54-5.46-50.84C735.11,249.77,728.74,241.89,719.65,237.44z M711.47,350
				c0,6.27-1.53,10.64-4.59,13.11c-3.06,2.47-8.47,3.71-16.24,3.71H646v-93.26c0-6.27,1.49-10.64,4.46-13.11
				c2.98-2.47,8.35-3.71,16.12-3.71h44.88V350z M801.73,224.57l-30.5,3.71v142.99c0,7.09,1.77,12.29,5.33,15.59
				c3.55,3.3,8.97,4.95,16.24,4.95c5.12,0,11.41-0.99,18.85-2.97l1.74-20.53c-4.46-0.33-8.35-0.82-11.66-1.48V224.57z
				 M907.37,268.36c-7.11-3.79-18.19-5.69-33.23-5.69c-11.9,0-21.12,1.94-27.65,5.81c-6.53,3.88-11.16,10.39-13.89,19.54
				c-2.73,9.15-4.09,22.23-4.09,39.21c0,17.81,1.4,31.34,4.22,40.57c2.81,9.24,7.64,15.71,14.51,19.42
				c6.86,3.71,16.82,5.57,29.88,5.57c10.58,0,19.01-1.07,25.29-3.22c6.28-2.14,11.24-5.77,14.88-10.88l6.2,10.39h14.38V222.35
				l-30.5,2.97V268.36z M907.37,362.37c0,2.47-0.79,4.12-2.36,4.95c-1.57,0.83-4.51,1.24-8.8,1.24h-35.46V293.1
				c0-2.47,0.78-4.16,2.36-5.07c1.57-0.9,4.42-1.36,8.56-1.36h35.71V362.37z M1073.52,360.63h-2.23l-33.73-126.17h-30.5
				l41.91,154.62h46.62l41.91-154.62h-30.5L1073.52,360.63z M1168.99,211.21c-6.78,0-11.45,1.24-14.01,3.71
				c-2.56,2.47-3.84,7.17-3.84,14.1c0,6.76,1.24,11.34,3.72,13.73c2.48,2.39,7.19,3.59,14.13,3.59c6.94,0,11.57-1.19,13.89-3.59
				c2.31-2.39,3.47-6.97,3.47-13.73c0-6.93-1.2-11.63-3.6-14.1C1180.35,212.45,1175.76,211.21,1168.99,211.21z M1153.61,389.08h30.5
				V263.91l-30.5,4.21V389.08z M1260.98,269.47c-5.46,3.55-11.57,8.45-18.35,14.72l-9.92-18.8h-14.63v123.69h30.5v-83.12
				c3.63-2.8,8.47-5.57,14.51-8.29c6.03-2.72,11.61-4.82,16.74-6.31l-2.73-29.69C1271.81,263.33,1266.44,265.93,1260.98,269.47z
				 M1384.23,251.04l-18.35,14.1c-6.94-2.31-16.37-3.46-28.27-3.46c-12.73,0-22.78,1.48-30.13,4.45
				c-7.36,2.97-12.69,7.75-15.99,14.35c-3.31,6.6-4.96,15.59-4.96,26.96c0,14.84,2.85,25.73,8.56,32.65
				c5.7,6.93,15.5,11.13,29.39,12.62l-6.94,24.24c0,2.97,3.51,5.28,10.54,6.93c7.02,1.65,18.8,3.05,35.34,4.21v16.08
				c-8.27,1.65-18.1,2.47-29.51,2.47c-6.45,0-12.81-0.49-19.09-1.48c-6.28-0.99-13.64-2.56-22.07-4.7l-3.97,22.26
				c6.94,2.47,14.84,4.37,23.68,5.69c8.84,1.32,17.89,1.98,27.15,1.98c12.56,0,22.52-1.07,29.88-3.22
				c7.35-2.15,12.73-5.57,16.12-10.27c3.39-4.7,5.08-11.09,5.08-19.17c0-6.93-1.24-12.16-3.72-15.71
				c-2.48-3.54-6.94-6.35-13.39-8.41c-6.45-2.06-16.45-3.92-30.01-5.57l1.24-15.09c11.07-0.49,19.8-2.31,26.16-5.44
				c6.36-3.13,10.99-7.92,13.89-14.35c2.89-6.43,4.34-15.01,4.34-25.73c0-10.22-1.32-18.55-3.97-24.99l14.13-16.82L1384.23,251.04z
				 M1359.43,321.05c0,5.11-1.16,8.66-3.47,10.64c-2.32,1.98-6.45,2.97-12.4,2.97h-27.28v-41.07c0-5.11,1.15-8.66,3.47-10.64
				c2.31-1.98,6.45-2.97,12.4-2.97h27.28V321.05z M1433.82,211.21c-6.78,0-11.45,1.24-14.01,3.71c-2.57,2.47-3.84,7.17-3.84,14.1
				c0,6.76,1.24,11.34,3.72,13.73c2.48,2.39,7.19,3.59,14.13,3.59c6.94,0,11.57-1.19,13.89-3.59c2.31-2.39,3.47-6.97,3.47-13.73
				c0-6.93-1.2-11.63-3.6-14.1C1445.19,212.45,1440.6,211.21,1433.82,211.21z M1418.45,389.08h30.5V263.91l-30.5,4.21V389.08z
				 M1578.89,268.48c-6.12-3.87-14.96-5.81-26.53-5.81c-9.42,0-17.98,1.24-25.67,3.71c-7.69,2.47-14.75,6.27-21.2,11.38l-8.18-12.37
				h-14.38v123.69h30.5v-88.81c0-4.78,1.28-8.08,3.84-9.9c2.56-1.81,7.4-2.72,14.51-2.72h25.79v101.43h30.5V285.43
				C1588.06,278.01,1585,272.36,1578.89,268.48z M1620.54,389.08h30.5V263.91l-30.5,4.21V389.08z M1635.92,211.21
				c-6.78,0-11.45,1.24-14.01,3.71c-2.57,2.47-3.84,7.17-3.84,14.1c0,6.76,1.24,11.34,3.72,13.73c2.48,2.39,7.19,3.59,14.13,3.59
				c6.94,0,11.57-1.19,13.89-3.59c2.31-2.39,3.47-6.97,3.47-13.73c0-6.93-1.2-11.63-3.6-14.1
				C1647.28,212.45,1642.7,211.21,1635.92,211.21z M1771.44,271.08c-7.36-5.6-19.8-8.41-37.32-8.41c-9.09,0-18.31,0.7-27.65,2.1
				c-9.34,1.4-17.4,3.26-24.18,5.57l3.97,21.77c15.04-4.12,29.51-6.18,43.4-6.18c9.26,0,16.7,0.83,22.32,2.47v25.48h-4.71
				c-20.5,0-35.58,1.03-45.26,3.09c-9.67,2.06-16.29,5.81-19.84,11.26c-3.56,5.44-5.33,13.94-5.33,25.48
				c0,13.52,3.06,23.25,9.18,29.19c6.11,5.94,16.12,8.91,30.01,8.91c17.52,0,32.15-5.03,43.89-15.09l7.94,12.37h14.63v-89.8
				C1782.47,286.09,1778.79,276.69,1771.44,271.08z M1751.97,356.18c0,5.11-1.36,8.62-4.09,10.51c-2.73,1.9-7.81,2.85-15.25,2.85
				h-28.02v-24c0-5.28,1.36-8.86,4.09-10.76c2.73-1.89,7.89-2.84,15.5-2.84h27.77V356.18z"/>
		</g>
	</g>
</g>
<g id="Layer_5">
	<g>
		<path class="st11" d="M740.75,512.57c-2.58,4.58-6.74,6.9-12.47,6.95c-4.3,0-7.73-1.7-10.28-5.11c-2.55-3.4-3.83-8.2-3.83-14.38
			c0-5.21,1.23-9.68,3.7-13.43c2.47-3.75,5.88-5.68,10.24-5.79c5.62,0.17,9.92,2.55,12.9,7.12l9.38-4.63
			c-5.28-8.47-12.7-12.7-22.28-12.7c-7.57,0-13.54,2.66-17.89,7.98c-4.36,5.32-6.54,12.53-6.54,21.63c0,9.04,2.19,16.28,6.58,21.71
			c4.39,5.44,10.34,8.15,17.85,8.15c9.52,0,16.95-4.23,22.28-12.7L740.75,512.57z"/>
	</g>
	<g>
		<path class="st11" d="M838.35,478.71c-4.39-5.41-10.14-8.11-17.25-8.11c-7.57,0-13.54,2.65-17.89,7.94
			c-4.36,5.29-6.54,12.52-6.54,21.67c0,8.07,1.95,14.85,5.85,20.34c4.47,6.35,10.67,9.53,18.58,9.53c7.23,0,13-2.76,17.34-8.28
			c4.33-5.52,6.5-12.77,6.5-21.76C844.93,491.23,842.74,484.12,838.35,478.71z M831.94,513.35c-2.29,4.29-5.91,6.44-10.84,6.44
			c-4.36,0-7.77-1.73-10.24-5.19c-2.47-3.46-3.7-8.25-3.7-14.38c0-6.06,1.23-10.81,3.7-14.25c2.47-3.43,5.88-5.15,10.24-5.15
			c4.3,0,7.64,1.72,10.02,5.15c2.38,3.43,3.57,8.18,3.57,14.25C834.69,505.59,833.77,509.97,831.94,513.35L831.94,513.35z"/>
	</g>
	<g>
		<path class="st11" d="M937.84,471.55h-9.89v38.36l-26.5-38.36h-10.07v57.5h10.07v-38.79l27.53,38.79h8.86V471.55z"/>
	</g>
	<g>
		<path class="st11" d="M1023.31,500.34c-3.64-3.35-9.48-5.76-17.51-7.25c-3.33-0.63-5.88-1.46-7.66-2.49
			c-1.78-1.03-2.64-2.35-2.58-3.95c-0.12-1.43,0.63-2.72,2.24-3.86c1.61-1.14,3.96-1.72,7.05-1.72c5.73,0.46,10.18,2.52,13.33,6.18
			l8.17-5.41c-4.99-6.81-12.16-10.44-21.51-10.9c-5.91,0-10.71,1.62-14.41,4.85c-3.7,3.23-5.49,6.94-5.38,11.11
			c0.06,3.6,1.42,6.75,4.09,9.44c2.67,2.69,7.93,4.95,15.79,6.78c5.62,1.32,9.35,2.63,11.18,3.95c1.83,1.32,2.67,3,2.49,5.06
			c-0.06,2.46-1.13,4.43-3.23,5.92c-2.09,1.49-4.98,2.2-8.65,2.15c-5.91-0.11-10.81-2.72-14.71-7.81l-8.6,5.84
			c5.91,7.9,13.56,11.84,22.97,11.84c7.05,0,12.55-1.69,16.48-5.06c3.93-3.38,5.92-7.61,5.98-12.7
			C1028.8,507.68,1026.95,503.69,1023.31,500.34z"/>
	</g>
	<g>
		<path class="st11" d="M1116.01,471.55h-43.27v10.13h16.6v47.38h10.07v-47.38h16.6V471.55z"/>
	</g>
	<g>
		<path class="st11" d="M1197.4,504.42c6.19-3.38,9.29-8.47,9.29-15.28c0-6.69-2.95-11.76-8.86-15.19c-2.81-1.6-6.11-2.4-9.89-2.4
			h-26.5v57.5h10.32v-22.57h15.31l9.29,22.57h11.53L1197.4,504.42z M1194.13,494.25c-1.49,1.29-3.5,1.93-6.02,1.93h-16.35v-14.33
			h16.35c2.52,0,4.53,0.66,6.02,1.97c1.49,1.32,2.24,3.09,2.24,5.32C1196.36,491.26,1195.62,492.96,1194.13,494.25z"/>
	</g>
	<g>
		<path class="st11" d="M1301.75,471.55h-10.24v34.33c0,2.92-0.63,5.41-1.89,7.47c-2.47,4.18-6.17,6.27-11.1,6.27
			c-4.88,0-8.58-2.09-11.1-6.27c-1.2-2.06-1.81-4.55-1.81-7.47v-34.33h-10.32v34.33c0,7.04,2.18,12.83,6.54,17.38
			c4.36,4.55,9.92,6.82,16.69,6.82c6.77,0,12.33-2.27,16.69-6.82c4.36-4.55,6.54-10.34,6.54-17.38V471.55z"/>
	</g>
	<g>
		<path class="st11" d="M1385.97,512.57c-2.58,4.58-6.74,6.9-12.47,6.95c-4.3,0-7.73-1.7-10.28-5.11c-2.55-3.4-3.83-8.2-3.83-14.38
			c0-5.21,1.23-9.68,3.7-13.43c2.47-3.75,5.88-5.68,10.24-5.79c5.62,0.17,9.92,2.55,12.91,7.12l9.38-4.63
			c-5.28-8.47-12.7-12.7-22.28-12.7c-7.57,0-13.54,2.66-17.89,7.98c-4.36,5.32-6.54,12.53-6.54,21.63c0,9.04,2.19,16.28,6.58,21.71
			c4.39,5.44,10.34,8.15,17.85,8.15c9.52,0,16.95-4.23,22.28-12.7L1385.97,512.57z"/>
	</g>
	<g>
		<path class="st11" d="M1484.22,471.55h-43.27v10.13h16.6v47.38h10.07v-47.38h16.6V471.55z"/>
	</g>
	<g>
		<path class="st11" d="M1541.69,471.55h-10.32v57.5h10.32V471.55z"/>
	</g>
	<g>
		<path class="st11" d="M1631.55,478.71c-4.39-5.41-10.14-8.11-17.25-8.11c-7.57,0-13.54,2.65-17.89,7.94
			c-4.36,5.29-6.54,12.52-6.54,21.67c0,8.07,1.95,14.85,5.85,20.34c4.47,6.35,10.67,9.53,18.58,9.53c7.23,0,13-2.76,17.34-8.28
			c4.33-5.52,6.5-12.77,6.5-21.76C1638.13,491.23,1635.93,484.12,1631.55,478.71z M1625.14,513.35c-2.29,4.29-5.91,6.44-10.84,6.44
			c-4.36,0-7.77-1.73-10.24-5.19c-2.47-3.46-3.7-8.25-3.7-14.38c0-6.06,1.23-10.81,3.7-14.25c2.47-3.43,5.88-5.15,10.24-5.15
			c4.3,0,7.64,1.72,10.02,5.15c2.38,3.43,3.57,8.18,3.57,14.25C1627.89,505.59,1626.97,509.97,1625.14,513.35L1625.14,513.35z"/>
	</g>
	<g>
		<path class="st11" d="M1731.04,471.55h-9.89v38.36l-26.5-38.36h-10.07v57.5h10.07v-38.79l27.53,38.79h8.86V471.55z"/>
	</g>
</g>
</svg>
