<?xml version="1.0" encoding="utf-8"?>
<!-- Generator: Adobe Illustrator 23.0.4, SVG Export Plug-In . SVG Version: 6.00 Build 0)  -->
<svg version="1.1" xmlns="http://www.w3.org/2000/svg" xmlns:xlink="http://www.w3.org/1999/xlink" x="0px" y="0px"
	 viewBox="0 0 800 800" style="enable-background:new 0 0 800 800;" xml:space="preserve">
<style type="text/css">
	
		.st0{fill-rule:evenodd;clip-rule:evenodd;fill:#5E4F4A;stroke:#2D2512;stroke-width:27;stroke-linejoin:bevel;stroke-miterlimit:10;}
	
		.st1{fill-rule:evenodd;clip-rule:evenodd;fill:#2D2512;stroke:#2D2512;stroke-width:27;stroke-linejoin:bevel;stroke-miterlimit:10;}
	
		.st2{fill-rule:evenodd;clip-rule:evenodd;fill:#9C8B6F;stroke:#2D2512;stroke-width:27;stroke-linejoin:bevel;stroke-miterlimit:10;}
	
		.st3{fill-rule:evenodd;clip-rule:evenodd;fill:#915F1B;stroke:#2D2512;stroke-width:27;stroke-linejoin:bevel;stroke-miterlimit:10;}
	
		.st4{fill-rule:evenodd;clip-rule:evenodd;fill:#3C2F41;stroke:#2D2512;stroke-width:27;stroke-linejoin:bevel;stroke-miterlimit:10;}
	.st5{fill-rule:evenodd;clip-rule:evenodd;fill:#FFFFFF;}
	.st6{fill-rule:evenodd;clip-rule:evenodd;fill:#E25524;}
	.st7{fill-rule:evenodd;clip-rule:evenodd;fill:#9C8B6F;}
	.st8{fill-rule:evenodd;clip-rule:evenodd;fill:#915F1B;}
	.st9{fill-rule:evenodd;clip-rule:evenodd;fill:#3C2F41;}
</style>
<g id="Layer_2">
</g>
<g id="Layer_1_copy">
	<g>
		<path class="st0" d="M458.78,535.97c-24.95,78-62.27,114.84-111.38,133.5c-11.2,7.48-18.48,28.8-18.36,56.56
			c9.17-18.99,12.24-32.57,29.53-37.66c40.21-11.83,40.54,15.9,73.89,29.21c28.71-28.32,49.19-82.32,58.42-157.23
			C479.99,541.97,469.33,536.38,458.78,535.97L458.78,535.97z"/>
		<path class="st1" d="M286.04,628.43c-4.96,16.71,1.34,41.14,26.99,78.84c-39.46-47.96-50.72,13.98-62.33,9.81
			C254.68,658.82,269.69,627.4,286.04,628.43L286.04,628.43z"/>
		<path class="st0" d="M379.52,295.72c12.08,13.4,8.4,21.23,18.28,63.88c2.35,10.14,4.52,19.41,8.12,14.95
			c26.98-33.26,59.98-39.18,66.58,2.11c12.37,15.39,17.43,34.3,19.36,51.56c1,9.01,1.15,17.56,1.05,24.94l-22.27-42.28
			c-3.25,20.17-7.77,27.18-11.88,28.75c6.57,16,16.91,30.88,31.57,44.46c-15.43-4.92-28.28-15.69-38.02-33.51
			c-7.1,17.53-13.73,24.68-19.98,23.84c9.46,11.47,24.73,23.49,66.37,38.02c16.76-0.33,21.93-8.98,23.84-19.98
			c-9.78-16.91-11.99-38.4-13.39-96.55C476.45,342.66,429.44,304.57,379.52,295.72L379.52,295.72z"/>
		<path class="st0" d="M528.72,494.06c-5.71,21.77-17.09,25.09-29.75,24.37c2.31,5.11,6.81,13.98,19.25,16.13
			c17.26,2.99,31.4-6.17,31.21-30.09C545.42,495.58,535.2,490.81,528.72,494.06L528.72,494.06z"/>
		<path class="st0" d="M556.16,507.91c-3.36,15.32-7.38,26.75-15.38,27.03c3.89,11.44,19.25,21.85,44.28,34.87
			c-15.88,5.95-39.08-6.64-61.07-31.4c3.86,57.61,72.83,56.55,86.84,125.47c22.13-16.69,11.71-50.79,4.47-79.5
			c4.31-0.25,13.98,11.28,24.52,24.73C640.94,561.12,627.91,518.51,556.16,507.91L556.16,507.91z"/>
		<path class="st0" d="M517.87,396.73C461.3,277.46,275.89,241.27,199.5,290.91c-27.32-21.95-45.43-75.51-27.31-136.74
			c7.66-25.89,27.55-18.58,22.56,11.11c-15.18,90.3,82.47,47.14,39.8-9.59l-19.59-24.19c-22.16-30.34,5.8-41.43,61.73-34.01
			c87.25,11.58,153.9,19.84,228.78,84.28c6.81,16.46,7.83,36.08,0.93,60.02c13.8-9.28,16.1-37.47,19.14-57.01
			c64.45,12.49,134.36,52.54,108.22,90.8C601.21,323.25,562.83,369.62,517.87,396.73L517.87,396.73z"/>
		<path class="st0" d="M205.53,301.78l-6.01,27.46c9.09,0.88,14.15,4.88,11.6,14.82L181.3,393.5c7.34,7.95,12.72-4.98,22.73,2.75
			c28.75,22.23,48.38,12.05,37.57-10.11c25.28,11.27,39.37,19.86,39.76,48.8c-6.84-8.38-19.5-26.32-33.73-24.52
			c-5.62,14.48-25.16,13.18-35.86,9.89l-5.8,20.19l-4.51-19.12l-8.59,26.42l11.81,5.8c3.8-5.3,9.6-8.31,17.4-9.02
			c19.37,12.54,39.52,20.45,61.86,15.46c-9.64,13.98-30.21,14.26-59.28,3.87c-16.34,0.55-29.4-0.33-30.72,6.66
			c-4.53,24.21,14.72,14.41,40.38,13.32c16.37,5.92,30.63,19.43,31.14,22.55c-34.29-13.9-49.18-11.35-68.73-7.3
			c-9.93,17.63-11.82,37.13,1.5,45.75c-2.93-15.07,1.05-21.07,6.34-25.35c0.02,8.74-3.28,21.55,7.3,23.2
			c145.26,22.62,165.84-22.92,189.01-68.73c-2.72,28.49-10.52,78.84-92.83,110.44c-18.47,7.09,17.27,41.81,27.1,73.85
			c63.39-21.99,93.81-68.51,112.55-123.72c-10.97-15.17-24.63-47.32-39.52-87.2c55.49,41.15,91.33-151.65,2.58-68.3
			c-8.53,8.01-13.83,6.17-18.86-9.96c-13.43-43.05-9.31-61.4-35.51-74.96C322.5,276.63,245.64,278.83,205.53,301.78L205.53,301.78z
			 M381.97,381.62c-10.96,9.94-18.98,20.35-67.62,24.38c-10.48,19.05,8.02,57.97-12.86,108.29c27.53-12.11,18.56-41.23,24.08-92.05
			C350.71,413.74,381.57,403.45,381.97,381.62L381.97,381.62z M422.25,390.31c24.24-31.92,35.71-16.86,30.68,3.66
			c-2.91-9.75-4.57-22.07-17.84-7.05c7.1,5.79,10.99,9.27,3.32,23.23c-7.15,13-11.06,22.7-23.65,21.16
			c10.63-9.01,8.59-14.77,5.8-20.33C434.15,397.42,428.61,393.65,422.25,390.31L422.25,390.31z M249.22,308.41
			c-9.64,13.99,5.69,23.53,0,36.19c17.49-4.56,22.02,5.77,36.51,14.11l19.91-8.3l30.7,2.9c-4.03-8.77-15.22-14.77-28.63-19.91
			l12.45-3.32l17.84,4.15c-1.18-4.41-6.79-12.71-28.73-17.01c-36.17-7.08-35.41,5.44-51.33,9.52
			C252.45,322.13,250.06,316.54,249.22,308.41L249.22,308.41z"/>
		<path class="st2" d="M378.9,384.45c-9.77,9.03-20.51,17.9-64.54,21.55c-10.48,19.05,8.02,57.97-12.86,108.29l0.57-0.26
			c-0.61,0.79-1.25,1.57-1.91,2.34c16.26-48.96-3.1-90.66,12.18-113.85C346.53,398.96,359.59,393.31,378.9,384.45L378.9,384.45z"/>
		<path class="st2" d="M282.88,461.46c-7.28,16.89-21.7,19.13-60.44,6.6c-12.39-0.17-21.45,0.45-28.26,1.61
			c2.26-6.01,14.87-5.22,30.46-5.75C252.7,473.94,272.84,474.04,282.88,461.46L282.88,461.46z"/>
		<path class="st2" d="M249.6,344.5c17.17-4.3,21.74,5.93,36.13,14.21l19.91-8.3l29.62,2.8l-29.65,1
			c-11.15,3.48-17.47,7.38-19.2,11.68C270.07,345.47,257.2,344.96,249.6,344.5L249.6,344.5z"/>
		<path class="st2" d="M404.74,383.23c1.83-0.68,3.81-2.09,6.02-4.16c22.94-21.55,37.57-24.64,45.67-18.09
			C434,361.88,410.58,385.74,404.74,383.23L404.74,383.23z"/>
		<path class="st2" d="M416.9,431.46c-1.2,0.53-2.45,0.95-3.74,1.31c6.26-8.53,8.72-17.24,4.2-22.26c11.12-9.27,8.23-13.32,0-20.16
			c16.68-18.49,23.79-21.45,29.06-18.43c-5.4-0.55-13.57,4.42-24.18,18.39c6.37,3.35,11.9,7.11-1.68,20.67
			c2.78,5.56,4.82,11.32-5.8,20.33C415.5,431.4,416.22,431.45,416.9,431.46L416.9,431.46z"/>
		<path class="st1" d="M180.48,140.14c8.4-6.18,17.89,3.59,14.27,25.14c-12.4,73.78,50.51,58.47,50.68,19.45
			c9.34,10.4-11.71,45.6-37.53,40.04c-16.37-3.53-20.53-17.31-18.58-70.16c0.03-0.76-0.07-1.52-0.1-2.3
			C188.91,145.03,185.74,141.71,180.48,140.14L180.48,140.14z"/>
		<path class="st1" d="M278.83,460.97c-20.32,2.82-38.88-4.81-56.76-16.39c-7.8,0.71-13.6,3.72-17.4,9.02l-11.81-5.8l8.59-26.42
			l4.51,19.12l5.8-20.19c10.7,3.29,30.25,4.59,35.86-9.89c12.67-1.61,24.08,12.43,31.27,21.45c-27.46-17.16-36.04,8.47-54.95-2.31
			l-1.17,10.14C236.79,449.47,255.41,456.59,278.83,460.97L278.83,460.97z M241.87,386.72c10.2,21.76-9.34,31.57-37.84,9.54
			c-10.01-7.74-15.39,5.2-22.73-2.75l1.88-3.13c6.32,6.53,13.21-4.08,20.47-1C231.18,407.59,240.93,402.85,241.87,386.72
			L241.87,386.72z M242.12,386.38l-0.23-0.1v-0.04L242.12,386.38L242.12,386.38z"/>
		<path class="st2" d="M255.74,285.58c-14.92,4.97-29.75,9.39-45.84,20.63l-2.42,19.32c10.66,2.8,13.79,9.77,10.29,20.39
			l-32.25,50.19c-1.37-0.25-2.77-1-4.24-2.6l29.82-49.44c2.56-9.94-2.51-13.95-11.6-14.82l6.01-27.46
			C219.09,294.03,236.86,288.63,255.74,285.58L255.74,285.58z"/>
		<path class="st1" d="M246.82,547.12c-10.77-0.98-22.4-2.43-34.96-4.38c-10.58-1.65-7.29-14.46-7.3-23.2
			c-5.28,4.28-9.27,10.27-6.34,25.35c-13.33-8.62-11.44-28.12-1.5-45.75c19.27-3.99,34.02-6.53,67.28,6.72l1.48,1.03
			c0,0-32.72-6.96-40.18,13.25C222.02,529.02,234.4,539.34,246.82,547.12L246.82,547.12z"/>
		<path class="st1" d="M296.97,338.77c-10.17-4.88-17.12,0.01-25.19,0.47C283.25,351.95,291.02,342.69,296.97,338.77L296.97,338.77z
			"/>
		<path class="st1" d="M249.56,343.78c-9.63-28.78-5.19-27.94,0.04-36.83c-0.08,0.97-0.16,1.91-0.23,2.82
			c-0.06-0.45-0.11-0.9-0.16-1.37C239.78,322.1,254.25,331.52,249.56,343.78L249.56,343.78z M258.1,326.7
			c24.85-22.85,57.57-18.28,72.09-1.88c-4.34-2.87-10.94-5.65-20.92-7.6C273.22,310.15,273.86,322.57,258.1,326.7L258.1,326.7z"/>
		<path class="st1" d="M396.82,498.77c-0.18,16.03-4.41,50.02-33.31,81.65c-14.71,16.1-0.62,49.23,5.69,61.98
			c-10.15,6.18-21.45,11.52-34.04,15.89c-9.83-32.04-45.57-66.76-27.1-73.85C369.83,560.73,389.64,526.45,396.82,498.77
			L396.82,498.77z"/>
		<path class="st3" d="M329.03,724.99c0.08-27.25,7.3-48.13,18.36-55.52c49.12-18.66,86.43-55.51,111.38-133.5
			c1.98,0.08,3.97,0.34,5.95,0.83c-6.78,29.81-21,95.02-115.02,141.35C339.94,682.97,333.03,707.68,329.03,724.99L329.03,724.99z"/>
		<path class="st3" d="M215.35,131.98l-0.39-0.48c-22.16-30.34,5.8-41.43,61.73-34.01c87.25,11.58,153.9,19.84,228.78,84.28
			c5.23,12.64,7.05,27.14,4.48,44.02c-2.25-8.92-5.19-19.3-10.62-34.91c-28.49-52.88-255.3-108.59-281.99-79.28
			C213.31,116.03,213.38,123.65,215.35,131.98L215.35,131.98z"/>
		<path class="st1" d="M198.03,289.69c92.42-57.6,262.61-24.32,331.91,99.2c-3.97,2.76-8,5.38-12.08,7.84
			C461.3,277.46,275.89,241.27,199.5,290.91C199,290.51,198.52,290.11,198.03,289.69L198.03,289.69z"/>
		<path class="st2" d="M185.51,138.31c-21.18,34.14-22.2,101.77,19.12,149.49c-1.76,0.99-3.46,2.03-5.12,3.11
			c-27.32-21.95-45.43-75.51-27.31-136.74C175.39,143.34,180.74,138.32,185.51,138.31L185.51,138.31z"/>
		<path class="st1" d="M314.16,283.51c16.67,1.58,31.57,5.14,42.23,10.65c26.2,13.55,22.08,31.91,35.51,74.96
			c2.93,9.38,5.94,13.92,9.63,14.51l0.12,0.6c-9.53-4.25-17.31-17.95-25.01-52.14C370.52,304.95,353.32,296.91,314.16,283.51
			L314.16,283.51z"/>
		<path class="st1" d="M403.55,375.57c-2.29-1.06-3.96-8.26-5.75-15.96c-9.87-42.65-6.2-50.49-18.28-63.88
			c46.23,8.19,89.99,41.49,122.19,88.69c-37.74-41.76-66.59-59.17-93.95-72.51c10.19,8.74,19.73,17.29,20.09,23.32l-21.53-7.53
			c4.46,2.52,9.13,5.61,16.87,16.5l-19.37-2.87c6.73,5.19,11.35,10.42,8.25,15.79C406.04,359.44,404.12,366.69,403.55,375.57
			L403.55,375.57z"/>
		<path class="st3" d="M403.21,375.36c-2.11-1.6-3.71-8.45-5.4-15.76c-9.87-42.65-6.2-50.49-18.28-63.88
			c2.64,0.47,5.27,1.01,7.88,1.64C395.69,313.14,396.34,333.68,403.21,375.36L403.21,375.36z"/>
		<path class="st1" d="M427.9,426.95c3.79-3.85,6.69-9.86,10.51-16.81c7.67-13.96,3.78-17.44-3.32-23.23
			c10.85-12.28,13.93-6.29,16.29,1.63c-1.44-3.02-3.93-7.16-6.34-6.2c-3.69,1.48-6.65,4.81-6.65,4.81
			C449.11,391.01,445.26,414.28,427.9,426.95L427.9,426.95z"/>
		<path class="st4" d="M444.62,529.98c1.05,1.68,2.08,3.21,3.09,4.6c-18.74,55.21-49.16,101.72-112.55,123.72
			c-0.64-2.08-1.39-4.17-2.22-6.27C392.49,629.49,420.53,581.34,444.62,529.98L444.62,529.98z"/>
		<path class="st1" d="M454.26,359.55c27.17,14.4-3.73,119.22-46.08,87.82c14.89,39.88,28.55,72.03,39.52,87.2
			c-1.22,3.61-2.5,7.18-3.83,10.71c-21.41-51.73-31.96-67.76-40.78-104.06C444.42,472.11,473.89,387.71,454.26,359.55L454.26,359.55
			z"/>
		<path class="st1" d="M452.47,450.87c0.26,8.16-0.24,17.81-8.52,25.05c15.67,13.7,29.99,20.01,58.59,31.09
			c9.45,2.06,14.76-5.48,19.84-13.56c-2.05,10.53-7.39,18.69-23.66,19.01c-41.64-14.53-56.91-26.55-66.37-38.02
			c6.25,0.84,12.87-6.31,19.98-23.84L452.47,450.87L452.47,450.87z"/>
		<path class="st3" d="M462.9,436.06c5.14,13.81,12.24,28.56,30.98,48.82c-2.64-0.11-5.41-0.82-8.41-2.57
			c1.59,0.67,3.22,1.26,4.88,1.79c-14.66-13.59-25.01-28.46-31.57-44.46C460.12,439.13,461.52,438.03,462.9,436.06L462.9,436.06z"/>
		<path class="st3" d="M451.61,347.96c10.38-0.88,22.52,6.84,25.81,26.68c23.1,26.53,19.27,62.97,16.23,83.76l-1.04-5.79l0.3,0.56
			c0.11-7.38-0.04-15.94-1.05-24.94c-1.93-17.26-6.99-36.17-19.36-51.56C469.65,358.73,461.79,349.7,451.61,347.96L451.61,347.96z"
			/>
		<path class="st3" d="M524.46,192.08c0.36-2.52,0.71-4.96,1.07-7.28c61.75,11.96,128.49,49.22,111.01,85.97
			C636.5,237.96,606.26,210.48,524.46,192.08L524.46,192.08z"/>
		<path class="st4" d="M633.04,239.83c7.66,11.49,8.95,23.71,0.72,35.77c-32.55,47.66-70.93,94.02-115.9,121.13
			c-0.15-0.3-0.28-0.6-0.43-0.9C560.52,350.91,627.03,295.48,633.04,239.83L633.04,239.83z"/>
		<path class="st4" d="M504.98,389.31c1.42,2.18,2.82,4.39,4.19,6.62c1.4,58.14,3.61,79.64,13.39,96.55
			c-0.03,0.18-0.06,0.37-0.1,0.55C500.88,459.96,500.96,426.53,504.98,389.31L504.98,389.31z"/>
		<path class="st3" d="M530.36,493.43c1.01,11.51-1.93,29.72-30.95,25.96c-0.15-0.33-0.3-0.65-0.43-0.96
			c12.66,0.72,24.03-2.6,29.75-24.37C529.24,493.8,529.79,493.59,530.36,493.43L530.36,493.43z"/>
		<path class="st1" d="M512.85,516.61c4.54,11.42,13.9,15.75,29.07,11.51c-5.74,6.08-14.25,8.08-23.7,6.44
			c-12.43-2.15-16.93-11.02-19.25-16.13C503.87,518.71,508.58,518.38,512.85,516.61L512.85,516.61z"/>
		<path class="st3" d="M545.12,533.5c7.9,10.28,18.91,21.63,40.6,36.65c-0.43-0.03-0.87-0.06-1.31-0.11
			c0.22-0.07,0.44-0.15,0.66-0.23c-25.03-13.02-40.39-23.42-44.28-34.87C542.38,534.88,543.81,534.39,545.12,533.5L545.12,533.5z"/>
		<path class="st1" d="M614.79,660.37c-1.19,1.24-2.5,2.42-3.96,3.51c-14.01-68.92-82.99-67.87-86.84-125.47
			c2.09,2.35,4.18,4.59,6.29,6.72C542.77,587.57,603.71,598.94,614.79,660.37L614.79,660.37z"/>
		<path class="st1" d="M555.65,510.23c0.17-0.76,0.35-1.54,0.52-2.31c69.52,10.27,83.92,50.6,83.73,96.76
			C634.88,569.29,620.47,524.84,555.65,510.23L555.65,510.23z"/>
		<path class="st3" d="M615.5,584.37c-0.76-2.67-1.47-5.48-2.12-8.45c14.6,10.33,21.44,19.72,26.5,30.05
			c-0.01,1.04-0.03,2.09-0.05,3.14C629.44,595.85,619.9,584.46,615.5,584.37L615.5,584.37z"/>
		<path class="st4" d="M469.12,538.27c7.17,3.1,14.41,9.68,21.75,22.08c-9.23,74.9-29.71,128.91-58.42,157.23
			c-27.87-11.13-32.67-32.33-56.98-32.08c18.98-3.63,35.38,6.07,55.55,26.61c26.26-33.89,45.08-86.13,53.29-149.37
			C482.73,554.37,476.38,546.3,469.12,538.27L469.12,538.27z"/>
		<path class="st0" d="M277.79,630.74c2.67-1.71,5.44-2.49,8.25-2.31c-4.96,16.71,1.34,41.14,26.99,78.84
			c-4.81-5.85-9.2-10.06-13.23-12.96C282.6,671.23,275.58,656.49,277.79,630.74L277.79,630.74z"/>
		<path class="st3" d="M397.13,481.42c-20.06,39.31-43.31,75.69-151.38,65.6C340.54,548.98,367.05,524.25,397.13,481.42
			L397.13,481.42z"/>
		<path class="st3" d="M242.78,386.68c27.9,2.96,40.72,19.16,40.64,51.86c-0.67-1.35-1.36-2.7-2.08-4.04
			C280.82,406.37,267.18,397.63,242.78,386.68L242.78,386.68z M241.8,386.58l0.04,0.08l0.09,0.18l-0.15-0.26L241.8,386.58
			L241.8,386.58z"/>
		<path class="st0" d="M247.91,410.39c-1.58,8.54,1.1,17.12-33.68,13.66l-8.26,20.87l-0.07-4.66l0.06,0.24l5.8-20.19
			c10.7,3.29,30.25,4.59,35.86-9.89C247.72,410.42,247.82,410.4,247.91,410.39L247.91,410.39z"/>
		<path class="st1" d="M193.35,478.51c5.48,4.86,17.59,4.93,40.57,0.63c15.26,3.39,29.98,13.64,30.89,25.92
			c-3.02-4.62-15.92-15.91-30.49-21.17C212.06,484.83,194.62,492.33,193.35,478.51L193.35,478.51z"/>
		<path class="st0" d="M203.6,520.36c-4.79,4.24-8.12,10.39-5.38,24.53c-2.39-1.55-4.29-3.44-5.74-5.61
			C193.25,525.4,197.86,521.42,203.6,520.36L203.6,520.36z"/>
		<path class="st3" d="M400.5,477.72c0.12-0.18,0.25-0.35,0.38-0.53c-2.31,24.58,4.93,68.3-84.29,112.24
			c-5.54,2.73-9.89,4.2-13.45,5.15c-0.95-4.81,0.26-8.35,4.92-10.13C386.89,554.18,397.37,506.71,400.5,477.72L400.5,477.72z"/>
		<path class="st3" d="M272.33,339.21c7.38-0.61,13.9-4.69,22.93-1.18C289.8,342.45,283.4,345.14,272.33,339.21L272.33,339.21z"/>
		<path class="st1" d="M380,390.38c-1.92,7.73-7.02,20.53-50.75,35.41c-2.54,4.09,3.84,77.53-21.52,85.05
			c19.87-13.75,12.79-42.08,17.84-88.6C347.08,414.97,372.78,406.38,380,390.38L380,390.38z M369.36,392.15
			c-2.17,1.42-4.64,2.79-7.54,4.1L369.36,392.15L369.36,392.15z"/>
		<path class="st1" d="M508.52,240.15c11.93-10.63,14.14-36.86,17.02-55.35c3.65,0.71,7.32,1.5,10.99,2.38
			C527.99,222.12,514.87,238.77,508.52,240.15L508.52,240.15z"/>
	</g>
</g>
<g id="Layer_1">
	<g>
		<path class="st5" d="M458.78,535.97c-24.95,78-62.27,114.84-111.38,133.5c-11.2,7.48-18.48,28.8-18.36,56.56
			c9.17-18.99,12.24-32.57,29.53-37.66c40.21-11.83,40.54,15.9,73.89,29.21c28.71-28.32,49.19-82.32,58.42-157.23
			C479.99,541.97,469.33,536.38,458.78,535.97L458.78,535.97z"/>
	</g>
	<g>
		<path class="st6" d="M286.04,628.43c-4.96,16.71,1.34,41.14,26.99,78.84c-39.46-47.96-50.72,13.98-62.33,9.81
			C254.68,658.82,269.69,627.4,286.04,628.43L286.04,628.43z"/>
	</g>
	<g>
		<path class="st5" d="M379.52,295.72c12.08,13.4,8.4,21.23,18.28,63.88c2.35,10.14,4.52,19.41,8.12,14.95
			c26.98-33.26,59.98-39.18,66.58,2.11c12.37,15.39,17.43,34.3,19.36,51.56c1,9.01,1.15,17.56,1.05,24.94l-22.27-42.28
			c-3.25,20.17-7.77,27.18-11.88,28.75c6.57,16,16.91,30.88,31.57,44.46c-15.43-4.92-28.28-15.69-38.02-33.51
			c-7.1,17.53-13.73,24.68-19.98,23.84c9.46,11.47,24.73,23.49,66.37,38.02c16.76-0.33,21.93-8.98,23.84-19.98
			c-9.78-16.91-11.99-38.4-13.39-96.55C476.45,342.66,429.44,304.57,379.52,295.72L379.52,295.72z"/>
	</g>
	<g>
		<path class="st5" d="M528.72,494.06c-5.71,21.77-17.09,25.09-29.75,24.37c2.31,5.11,6.81,13.98,19.25,16.13
			c17.26,2.99,31.4-6.17,31.21-30.09C545.42,495.58,535.2,490.81,528.72,494.06L528.72,494.06z"/>
	</g>
	<g>
		<path class="st5" d="M556.16,507.91c-3.36,15.32-7.38,26.75-15.38,27.03c3.89,11.44,19.25,21.85,44.28,34.87
			c-15.88,5.95-39.08-6.64-61.07-31.4c3.86,57.61,72.83,56.55,86.84,125.47c22.13-16.69,11.71-50.79,4.47-79.5
			c4.31-0.25,13.98,11.28,24.52,24.73C640.94,561.12,627.91,518.51,556.16,507.91L556.16,507.91z"/>
	</g>
	<g>
		<path class="st5" d="M517.87,396.73C461.3,277.46,275.89,241.27,199.5,290.91c-27.32-21.95-45.43-75.51-27.31-136.74
			c7.66-25.89,27.55-18.58,22.56,11.11c-15.18,90.3,82.47,47.14,39.8-9.59l-19.59-24.19c-22.16-30.34,5.8-41.43,61.73-34.01
			c87.25,11.58,153.9,19.84,228.78,84.28c6.81,16.46,7.83,36.08,0.93,60.02c13.8-9.28,16.1-37.47,19.14-57.01
			c64.45,12.49,134.36,52.54,108.22,90.8C601.21,323.25,562.83,369.62,517.87,396.73L517.87,396.73z"/>
	</g>
	<g>
		<path class="st5" d="M205.53,301.78l-6.01,27.46c9.09,0.88,14.15,4.88,11.6,14.82L181.3,393.5c7.34,7.95,12.72-4.98,22.73,2.75
			c28.75,22.23,48.38,12.05,37.57-10.11c25.28,11.27,39.37,19.86,39.76,48.8c-6.84-8.38-19.5-26.32-33.73-24.52
			c-5.62,14.48-25.16,13.18-35.86,9.89l-5.8,20.19l-4.51-19.12l-8.59,26.42l11.81,5.8c3.8-5.3,9.6-8.31,17.4-9.02
			c19.37,12.54,39.52,20.45,61.86,15.46c-9.64,13.98-30.21,14.26-59.28,3.87c-16.34,0.55-29.4-0.33-30.72,6.66
			c-4.53,24.21,14.72,14.41,40.38,13.32c16.37,5.92,30.63,19.43,31.14,22.55c-34.29-13.9-49.18-11.35-68.73-7.3
			c-9.93,17.63-11.82,37.13,1.5,45.75c-2.93-15.07,1.05-21.07,6.34-25.35c0.02,8.74-3.28,21.55,7.3,23.2
			c145.26,22.62,165.84-22.92,189.01-68.73c-2.72,28.49-10.52,78.84-92.83,110.44c-18.47,7.09,17.27,41.81,27.1,73.85
			c63.39-21.99,93.81-68.51,112.55-123.72c-10.97-15.17-24.63-47.32-39.52-87.2c55.49,41.15,91.33-151.65,2.58-68.3
			c-8.53,8.01-13.83,6.17-18.86-9.96c-13.43-43.05-9.31-61.4-35.51-74.96C322.5,276.63,245.64,278.83,205.53,301.78L205.53,301.78z
			 M381.97,381.62c-10.96,9.94-18.98,20.35-67.62,24.38c-10.48,19.05,8.02,57.97-12.86,108.29c27.53-12.11,18.56-41.23,24.08-92.05
			C350.71,413.74,381.57,403.45,381.97,381.62L381.97,381.62z M422.25,390.31c24.24-31.92,35.71-16.86,30.68,3.66
			c-2.91-9.75-4.57-22.07-17.84-7.05c7.1,5.79,10.99,9.27,3.32,23.23c-7.15,13-11.06,22.7-23.65,21.16
			c10.63-9.01,8.59-14.77,5.8-20.33C434.15,397.42,428.61,393.65,422.25,390.31L422.25,390.31z M249.22,308.41
			c-9.64,13.99,5.69,23.53,0,36.19c17.49-4.56,22.02,5.77,36.51,14.11l19.91-8.3l30.7,2.9c-4.03-8.77-15.22-14.77-28.63-19.91
			l12.45-3.32l17.84,4.15c-1.18-4.41-6.79-12.71-28.73-17.01c-36.17-7.08-35.41,5.44-51.33,9.52
			C252.45,322.13,250.06,316.54,249.22,308.41L249.22,308.41z"/>
	</g>
	<g>
		<path class="st7" d="M378.9,384.45c-9.77,9.03-20.51,17.9-64.54,21.55c-10.48,19.05,8.02,57.97-12.86,108.29l0.57-0.26
			c-0.61,0.79-1.25,1.57-1.91,2.34c16.26-48.96-3.1-90.66,12.18-113.85C346.53,398.96,359.59,393.31,378.9,384.45L378.9,384.45z"/>
	</g>
	<g>
		<path class="st7" d="M282.88,461.46c-7.28,16.89-21.7,19.13-60.44,6.6c-12.39-0.17-21.45,0.45-28.26,1.61
			c2.26-6.01,14.87-5.22,30.46-5.75C252.7,473.94,272.84,474.04,282.88,461.46L282.88,461.46z"/>
	</g>
	<g>
		<path class="st7" d="M249.6,344.5c17.17-4.3,21.74,5.93,36.13,14.21l19.91-8.3l29.62,2.8l-29.65,1
			c-11.15,3.48-17.47,7.38-19.2,11.68C270.07,345.47,257.2,344.96,249.6,344.5L249.6,344.5z"/>
	</g>
	<g>
		<path class="st7" d="M404.74,383.23c1.83-0.68,3.81-2.09,6.02-4.16c22.94-21.55,37.57-24.64,45.67-18.09
			C434,361.88,410.58,385.74,404.74,383.23L404.74,383.23z"/>
	</g>
	<g>
		<path class="st7" d="M416.9,431.46c-1.2,0.53-2.45,0.95-3.74,1.31c6.26-8.53,8.72-17.24,4.2-22.26c11.12-9.27,8.23-13.32,0-20.16
			c16.68-18.49,23.79-21.45,29.06-18.43c-5.4-0.55-13.57,4.42-24.18,18.39c6.37,3.35,11.9,7.11-1.68,20.67
			c2.78,5.56,4.82,11.32-5.8,20.33C415.5,431.4,416.22,431.45,416.9,431.46L416.9,431.46z"/>
	</g>
	<g>
		<path class="st6" d="M180.48,140.14c8.4-6.18,17.89,3.59,14.27,25.14c-12.4,73.78,50.51,58.47,50.68,19.45
			c9.34,10.4-11.71,45.6-37.53,40.04c-16.37-3.53-20.53-17.31-18.58-70.16c0.03-0.76-0.07-1.52-0.1-2.3
			C188.91,145.03,185.74,141.71,180.48,140.14L180.48,140.14z"/>
	</g>
	<g>
		<path class="st6" d="M278.83,460.97c-20.32,2.82-38.88-4.81-56.76-16.39c-7.8,0.71-13.6,3.72-17.4,9.02l-11.81-5.8l8.59-26.42
			l4.51,19.12l5.8-20.19c10.7,3.29,30.25,4.59,35.86-9.89c12.67-1.61,24.08,12.43,31.27,21.45c-27.46-17.16-36.04,8.47-54.95-2.31
			l-1.17,10.14C236.79,449.47,255.41,456.59,278.83,460.97L278.83,460.97z M241.87,386.72c10.2,21.76-9.34,31.57-37.84,9.54
			c-10.01-7.74-15.39,5.2-22.73-2.75l1.88-3.13c6.32,6.53,13.21-4.08,20.47-1C231.18,407.59,240.93,402.85,241.87,386.72
			L241.87,386.72z M242.12,386.38l-0.23-0.1v-0.04L242.12,386.38L242.12,386.38z"/>
	</g>
	<g>
		<path class="st7" d="M255.74,285.58c-14.92,4.97-29.75,9.39-45.84,20.63l-2.42,19.32c10.66,2.8,13.79,9.77,10.29,20.39
			l-32.25,50.19c-1.37-0.25-2.77-1-4.24-2.6l29.82-49.44c2.56-9.94-2.51-13.95-11.6-14.82l6.01-27.46
			C219.09,294.03,236.86,288.63,255.74,285.58L255.74,285.58z"/>
	</g>
	<g>
		<path class="st6" d="M246.82,547.12c-10.77-0.98-22.4-2.43-34.96-4.38c-10.58-1.65-7.29-14.46-7.3-23.2
			c-5.28,4.28-9.27,10.27-6.34,25.35c-13.33-8.62-11.44-28.12-1.5-45.75c19.27-3.99,34.02-6.53,67.28,6.72l1.48,1.03
			c0,0-32.72-6.96-40.18,13.25C222.02,529.02,234.4,539.34,246.82,547.12L246.82,547.12z"/>
	</g>
	<g>
		<path class="st6" d="M296.97,338.77c-10.17-4.88-17.12,0.01-25.19,0.47C283.25,351.95,291.02,342.69,296.97,338.77L296.97,338.77z
			"/>
	</g>
	<g>
		<path class="st6" d="M249.56,343.78c-9.63-28.78-5.19-27.94,0.04-36.83c-0.08,0.97-0.16,1.91-0.23,2.82
			c-0.06-0.45-0.11-0.9-0.16-1.37C239.78,322.1,254.25,331.52,249.56,343.78L249.56,343.78z M258.1,326.7
			c24.85-22.85,57.57-18.28,72.09-1.88c-4.34-2.87-10.94-5.65-20.92-7.6C273.22,310.15,273.86,322.57,258.1,326.7L258.1,326.7z"/>
	</g>
	<g>
		<path class="st6" d="M396.82,498.77c-0.18,16.03-4.41,50.02-33.31,81.65c-14.71,16.1-0.62,49.23,5.69,61.98
			c-10.15,6.18-21.45,11.52-34.04,15.89c-9.83-32.04-45.57-66.76-27.1-73.85C369.83,560.73,389.64,526.45,396.82,498.77
			L396.82,498.77z"/>
	</g>
	<g>
		<path class="st8" d="M329.03,724.99c0.08-27.25,7.3-48.13,18.36-55.52c49.12-18.66,86.43-55.51,111.38-133.5
			c1.98,0.08,3.97,0.34,5.95,0.83c-6.78,29.81-21,95.02-115.02,141.35C339.94,682.97,333.03,707.68,329.03,724.99L329.03,724.99z"/>
	</g>
	<g>
		<path class="st8" d="M215.35,131.98l-0.39-0.48c-22.16-30.34,5.8-41.43,61.73-34.01c87.25,11.58,153.9,19.84,228.78,84.28
			c5.23,12.64,7.05,27.14,4.48,44.02c-2.25-8.92-5.19-19.3-10.62-34.91c-28.49-52.88-255.3-108.59-281.99-79.28
			C213.31,116.03,213.38,123.65,215.35,131.98L215.35,131.98z"/>
	</g>
	<g>
		<path class="st6" d="M198.03,289.69c92.42-57.6,262.61-24.32,331.91,99.2c-3.97,2.76-8,5.38-12.08,7.84
			C461.3,277.46,275.89,241.27,199.5,290.91C199,290.51,198.52,290.11,198.03,289.69L198.03,289.69z"/>
	</g>
	<g>
		<path class="st7" d="M185.51,138.31c-21.18,34.14-22.2,101.77,19.12,149.49c-1.76,0.99-3.46,2.03-5.12,3.11
			c-27.32-21.95-45.43-75.51-27.31-136.74C175.39,143.34,180.74,138.32,185.51,138.31L185.51,138.31z"/>
	</g>
	<g>
		<path class="st6" d="M314.16,283.51c16.67,1.58,31.57,5.14,42.23,10.65c26.2,13.55,22.08,31.91,35.51,74.96
			c2.93,9.38,5.94,13.92,9.63,14.51l0.12,0.6c-9.53-4.25-17.31-17.95-25.01-52.14C370.52,304.95,353.32,296.91,314.16,283.51
			L314.16,283.51z"/>
	</g>
	<g>
		<path class="st6" d="M403.55,375.57c-2.29-1.06-3.96-8.26-5.75-15.96c-9.87-42.65-6.2-50.49-18.28-63.88
			c46.23,8.19,89.99,41.49,122.19,88.69c-37.74-41.76-66.59-59.17-93.95-72.51c10.19,8.74,19.73,17.29,20.09,23.32l-21.53-7.53
			c4.46,2.52,9.13,5.61,16.87,16.5l-19.37-2.87c6.73,5.19,11.35,10.42,8.25,15.79C406.04,359.44,404.12,366.69,403.55,375.57
			L403.55,375.57z"/>
	</g>
	<g>
		<path class="st8" d="M403.21,375.36c-2.11-1.6-3.71-8.45-5.4-15.76c-9.87-42.65-6.2-50.49-18.28-63.88
			c2.64,0.47,5.27,1.01,7.88,1.64C395.69,313.14,396.34,333.68,403.21,375.36L403.21,375.36z"/>
	</g>
	<g>
		<path class="st6" d="M427.9,426.95c3.79-3.85,6.69-9.86,10.51-16.81c7.67-13.96,3.78-17.44-3.32-23.23
			c10.85-12.28,13.93-6.29,16.29,1.63c-1.44-3.02-3.93-7.16-6.34-6.2c-3.69,1.48-6.65,4.81-6.65,4.81
			C449.11,391.01,445.26,414.28,427.9,426.95L427.9,426.95z"/>
	</g>
	<g>
		<path class="st9" d="M444.62,529.98c1.05,1.68,2.08,3.21,3.09,4.6c-18.74,55.21-49.16,101.72-112.55,123.72
			c-0.64-2.08-1.39-4.17-2.22-6.27C392.49,629.49,420.53,581.34,444.62,529.98L444.62,529.98z"/>
	</g>
	<g>
		<path class="st6" d="M454.26,359.55c27.17,14.4-3.73,119.22-46.08,87.82c14.89,39.88,28.55,72.03,39.52,87.2
			c-1.22,3.61-2.5,7.18-3.83,10.71c-21.41-51.73-31.96-67.76-40.78-104.06C444.42,472.11,473.89,387.71,454.26,359.55L454.26,359.55
			z"/>
	</g>
	<g>
		<path class="st6" d="M452.47,450.87c0.26,8.16-0.24,17.81-8.52,25.05c15.67,13.7,29.99,20.01,58.59,31.09
			c9.45,2.06,14.76-5.48,19.84-13.56c-2.05,10.53-7.39,18.69-23.66,19.01c-41.64-14.53-56.91-26.55-66.37-38.02
			c6.25,0.84,12.87-6.31,19.98-23.84L452.47,450.87L452.47,450.87z"/>
	</g>
	<g>
		<path class="st8" d="M462.9,436.06c5.14,13.81,12.24,28.56,30.98,48.82c-2.64-0.11-5.41-0.82-8.41-2.57
			c1.59,0.67,3.22,1.26,4.88,1.79c-14.66-13.59-25.01-28.46-31.57-44.46C460.12,439.13,461.52,438.03,462.9,436.06L462.9,436.06z"/>
	</g>
	<g>
		<path class="st8" d="M451.61,347.96c10.38-0.88,22.52,6.84,25.81,26.68c23.1,26.53,19.27,62.97,16.23,83.76l-1.04-5.79l0.3,0.56
			c0.11-7.38-0.04-15.94-1.05-24.94c-1.93-17.26-6.99-36.17-19.36-51.56C469.65,358.73,461.79,349.7,451.61,347.96L451.61,347.96z"
			/>
	</g>
	<g>
		<path class="st8" d="M524.46,192.08c0.36-2.52,0.71-4.96,1.07-7.28c61.75,11.96,128.49,49.22,111.01,85.97
			C636.5,237.96,606.26,210.48,524.46,192.08L524.46,192.08z"/>
	</g>
	<g>
		<path class="st9" d="M633.04,239.83c7.66,11.49,8.95,23.71,0.72,35.77c-32.55,47.66-70.93,94.02-115.9,121.13
			c-0.15-0.3-0.28-0.6-0.43-0.9C560.52,350.91,627.03,295.48,633.04,239.83L633.04,239.83z"/>
	</g>
	<g>
		<path class="st9" d="M504.98,389.31c1.42,2.18,2.82,4.39,4.19,6.62c1.4,58.14,3.61,79.64,13.39,96.55
			c-0.03,0.18-0.06,0.37-0.1,0.55C500.88,459.96,500.96,426.53,504.98,389.31L504.98,389.31z"/>
	</g>
	<g>
		<path class="st8" d="M530.36,493.43c1.01,11.51-1.93,29.72-30.95,25.96c-0.15-0.33-0.3-0.65-0.43-0.96
			c12.66,0.72,24.03-2.6,29.75-24.37C529.24,493.8,529.79,493.59,530.36,493.43L530.36,493.43z"/>
	</g>
	<g>
		<path class="st6" d="M512.85,516.61c4.54,11.42,13.9,15.75,29.07,11.51c-5.74,6.08-14.25,8.08-23.7,6.44
			c-12.43-2.15-16.93-11.02-19.25-16.13C503.87,518.71,508.58,518.38,512.85,516.61L512.85,516.61z"/>
	</g>
	<g>
		<path class="st8" d="M545.12,533.5c7.9,10.28,18.91,21.63,40.6,36.65c-0.43-0.03-0.87-0.06-1.31-0.11
			c0.22-0.07,0.44-0.15,0.66-0.23c-25.03-13.02-40.39-23.42-44.28-34.87C542.38,534.88,543.81,534.39,545.12,533.5L545.12,533.5z"/>
	</g>
	<g>
		<path class="st6" d="M614.79,660.37c-1.19,1.24-2.5,2.42-3.96,3.51c-14.01-68.92-82.99-67.87-86.84-125.47
			c2.09,2.35,4.18,4.59,6.29,6.72C542.77,587.57,603.71,598.94,614.79,660.37L614.79,660.37z"/>
	</g>
	<g>
		<path class="st6" d="M555.65,510.23c0.17-0.76,0.35-1.54,0.52-2.31c69.52,10.27,83.92,50.6,83.73,96.76
			C634.88,569.29,620.47,524.84,555.65,510.23L555.65,510.23z"/>
	</g>
	<g>
		<path class="st8" d="M615.5,584.37c-0.76-2.67-1.47-5.48-2.12-8.45c14.6,10.33,21.44,19.72,26.5,30.05
			c-0.01,1.04-0.03,2.09-0.05,3.14C629.44,595.85,619.9,584.46,615.5,584.37L615.5,584.37z"/>
	</g>
	<g>
		<path class="st9" d="M469.12,538.27c7.17,3.1,14.41,9.68,21.75,22.08c-9.23,74.9-29.71,128.91-58.42,157.23
			c-27.87-11.13-32.67-32.33-56.98-32.08c18.98-3.63,35.38,6.07,55.55,26.61c26.26-33.89,45.08-86.13,53.29-149.37
			C482.73,554.37,476.38,546.3,469.12,538.27L469.12,538.27z"/>
	</g>
	<g>
		<path class="st5" d="M277.79,630.74c2.67-1.71,5.44-2.49,8.25-2.31c-4.96,16.71,1.34,41.14,26.99,78.84
			c-4.81-5.85-9.2-10.06-13.23-12.96C282.6,671.23,275.58,656.49,277.79,630.74L277.79,630.74z"/>
	</g>
	<g>
		<path class="st8" d="M397.13,481.42c-20.06,39.31-43.31,75.69-151.38,65.6C340.54,548.98,367.05,524.25,397.13,481.42
			L397.13,481.42z"/>
	</g>
	<g>
		<path class="st8" d="M242.78,386.68c27.9,2.96,40.72,19.16,40.64,51.86c-0.67-1.35-1.36-2.7-2.08-4.04
			C280.82,406.37,267.18,397.63,242.78,386.68L242.78,386.68z M241.8,386.58l0.04,0.08l0.09,0.18l-0.15-0.26L241.8,386.58
			L241.8,386.58z"/>
	</g>
	<g>
		<path class="st5" d="M247.91,410.39c-1.58,8.54,1.1,17.12-33.68,13.66l-8.26,20.87l-0.07-4.66l0.06,0.24l5.8-20.19
			c10.7,3.29,30.25,4.59,35.86-9.89C247.72,410.42,247.82,410.4,247.91,410.39L247.91,410.39z"/>
	</g>
	<g>
		<path class="st6" d="M193.35,478.51c5.48,4.86,17.59,4.93,40.57,0.63c15.26,3.39,29.98,13.64,30.89,25.92
			c-3.02-4.62-15.92-15.91-30.49-21.17C212.06,484.83,194.62,492.33,193.35,478.51L193.35,478.51z"/>
	</g>
	<g>
		<path class="st5" d="M203.6,520.36c-4.79,4.24-8.12,10.39-5.38,24.53c-2.39-1.55-4.29-3.44-5.74-5.61
			C193.25,525.4,197.86,521.42,203.6,520.36L203.6,520.36z"/>
	</g>
	<g>
		<path class="st8" d="M400.5,477.72c0.12-0.18,0.25-0.35,0.38-0.53c-2.31,24.58,4.93,68.3-84.29,112.24
			c-5.54,2.73-9.89,4.2-13.45,5.15c-0.95-4.81,0.26-8.35,4.92-10.13C386.89,554.18,397.37,506.71,400.5,477.72L400.5,477.72z"/>
	</g>
	<g>
		<path class="st8" d="M272.33,339.21c7.38-0.61,13.9-4.69,22.93-1.18C289.8,342.45,283.4,345.14,272.33,339.21L272.33,339.21z"/>
	</g>
	<g>
		<path class="st6" d="M380,390.38c-1.92,7.73-7.02,20.53-50.75,35.41c-2.54,4.09,3.84,77.53-21.52,85.05
			c19.87-13.75,12.79-42.08,17.84-88.6C347.08,414.97,372.78,406.38,380,390.38L380,390.38z M369.36,392.15
			c-2.17,1.42-4.64,2.79-7.54,4.1L369.36,392.15L369.36,392.15z"/>
	</g>
	<g>
		<path class="st6" d="M508.52,240.15c11.93-10.63,14.14-36.86,17.02-55.35c3.65,0.71,7.32,1.5,10.99,2.38
			C527.99,222.12,514.87,238.77,508.52,240.15L508.52,240.15z"/>
	</g>
</g>
<g id="Layer_3">
</g>
</svg>
